<?xml version="1.0" encoding="utf-8"?>
<!-- Generator: Adobe Illustrator 26.0.1, SVG Export Plug-In . SVG Version: 6.00 Build 0)  -->
<svg version="1.1" id="Layer_1" xmlns="http://www.w3.org/2000/svg" xmlns:xlink="http://www.w3.org/1999/xlink" x="0px" y="0px"
	 viewBox="0 0 904.89 742" style="enable-background:new 0 0 904.89 742;" xml:space="preserve">
<style type="text/css">
	.st0{fill:#FFFFFF;}
	.st1{fill:#F6E27B;}
	.st2{fill:#3F3D56;}
	.st3{fill:#E4E4E4;}
	.st4{fill:#CACACA;}
	.st5{fill:#FFB6B6;}
	.st6{fill:#2F2E41;}
	.st7{fill:#FFB8B8;}
</style>
<path class="st0" d="M617,557.5H7c-3.59,0-6.5-2.91-6.5-6.5V7c0-3.59,2.91-6.5,6.5-6.5h610c3.59,0,6.5,2.91,6.5,6.5v544
	C623.5,554.59,620.59,557.5,617,557.5z"/>
<path class="st1" d="M208.69,24.43v140.58h-0.29c-38.82-0.01-70.29-31.48-70.28-70.31c0.01-38.81,31.47-70.27,70.28-70.28
	L208.69,24.43z"/>
<path class="st0" d="M192.79,56.12v77.22h-0.16c-21.32,0-38.6-17.29-38.6-38.61c0-21.32,17.28-38.6,38.6-38.6H192.79z"/>
<polygon class="st2" points="312.54,281 100.15,281 100.15,93.72 138.11,93.72 138.11,95.72 102.15,95.72 102.15,279 312.54,279 "/>
<circle class="st1" cx="341.18" cy="309.07" r="19.09"/>
<ellipse transform="matrix(0.1602 -0.9871 0.9871 0.1602 -51.6035 927.1763)" class="st2" cx="519.08" cy="493.91" rx="19.09" ry="19.09"/>
<circle class="st1" cx="100.8" cy="278.7" r="19.09"/>
<polygon class="st2" points="312.54,280.43 360.27,280.43 360.27,232.71 264.81,232.71 264.81,328.16 312.54,328.16 "/>
<rect x="414.94" y="40.05" class="st3" width="209.14" height="26.03"/>
<rect x="414.94" y="96.46" class="st3" width="209.14" height="26.03"/>
<path class="st3" d="M561.6,185.84c0,0.39-0.01,0.77-0.02,1.15h-85.01c-0.01-0.38-0.02-0.76-0.02-1.15
	c0-23.48,19.04-42.52,42.52-42.52C542.57,143.32,561.6,162.36,561.6,185.84L561.6,185.84z"/>
<path class="st3" d="M561.6,488.42c0,0.39-0.01,0.77-0.02,1.15h-85.01c-0.01-0.38-0.02-0.76-0.02-1.15
	c0-23.48,19.04-42.52,42.52-42.52C542.57,445.9,561.6,464.94,561.6,488.42L561.6,488.42z"/>
<rect x="518.08" y="228.37" class="st2" width="2" height="217.42"/>
<path class="st1" d="M273.49,467.88c0,35.83-28.97,64.93-64.8,65.09V402.79C244.53,402.95,273.49,432.05,273.49,467.88z"/>
<path class="st2" d="M618.88,560H6.21c-3.43,0-6.2-2.78-6.21-6.21V6.21C0,2.78,2.78,0,6.21,0h612.67c3.43,0,6.2,2.78,6.21,6.21
	v547.59C625.08,557.22,622.3,560,618.88,560z M6.21,2C3.88,2,2,3.88,2,6.21v547.59c0,2.32,1.88,4.2,4.21,4.21h612.67
	c2.32,0,4.2-1.88,4.21-4.21V6.21c0-2.32-1.88-4.2-4.21-4.21H6.21z"/>
<path class="st2" d="M207.69,166.02V23.43l1,0c39.37,0.16,71.16,32.2,71.01,71.58c-0.16,39.15-31.86,70.85-71.01,71.01
	L207.69,166.02z M209.69,25.44V164c38.26-0.71,68.7-32.31,67.99-70.57C276.99,56.17,246.95,26.13,209.69,25.44z"/>
<path class="st2" d="M209.69,533.97h-1.29c-36.5,0-66.09-29.58-66.09-66.08s29.58-66.09,66.08-66.09c0,0,0.01,0,0.01,0h1.29
	L209.69,533.97z M207.69,403.8c-35.39,0.39-63.76,29.4-63.37,64.79c0.39,34.84,28.53,62.98,63.37,63.37V403.8z"/>
<path class="st2" d="M519.08,229.37c-23.63,0.13-42.99-18.72-43.5-42.34l-0.03-1.03h87.06l-0.03,1.03
	C562.07,210.65,542.71,229.49,519.08,229.37z M477.61,188c1.19,22.9,20.72,40.5,43.62,39.31c21.24-1.1,38.21-18.07,39.31-39.31
	H477.61z"/>
<rect x="1" y="372" class="st2" width="623.09" height="2"/>
<rect x="1" y="186" class="st2" width="623.09" height="2"/>
<rect x="415.39" y="1" class="st2" width="2" height="558"/>
<rect x="207.69" y="1" class="st2" width="2" height="558"/>
<circle class="st1" cx="145.92" cy="466.14" r="19.09"/>
<path class="st4" d="M887.99,741h-381c-0.55,0-1-0.45-1-1s0.45-1,1-1h381c0.55,0,1,0.45,1,1S888.54,741,887.99,741z"/>
<path class="st5" d="M775.12,525.05c-2.64-3.77-1.72-8.96,2.05-11.6c0.4-0.28,0.83-0.53,1.27-0.73l-2.94-29.45l13.62,7.15
	l0.71,26.87c1.66,4.32-0.49,9.16-4.81,10.82C781.41,529.5,777.32,528.24,775.12,525.05L775.12,525.05z"/>
<path class="st5" d="M655.83,520.91c-2.64-3.77-1.72-8.96,2.05-11.6c0.4-0.28,0.83-0.53,1.27-0.73l-2.94-29.45l13.62,7.15
	l0.71,26.87c1.66,4.32-0.49,9.16-4.81,10.82C662.12,525.36,658.03,524.09,655.83,520.91L655.83,520.91z"/>
<polygon class="st5" points="746.69,728.74 736.53,728.74 731.7,689.57 746.69,689.57 "/>
<path class="st6" d="M749.28,738.58l-32.75,0v-0.41c0-7.04,5.71-12.75,12.75-12.75h0l20,0L749.28,738.58z"/>
<polygon class="st5" points="671.31,728.74 661.15,728.74 656.32,689.57 671.31,689.57 "/>
<path class="st6" d="M673.9,738.58l-32.75,0v-0.41c0-7.04,5.71-12.75,12.75-12.75h0l20,0L673.9,738.58z"/>
<circle class="st7" cx="726.51" cy="297.91" r="26.82"/>
<polygon class="st6" points="667.32,506.99 662.35,514.86 652.41,719.88 673.12,719.05 714.53,545.92 731.1,720.71 749.33,721.54 
	764.11,518.27 "/>
<path class="st2" d="M775.83,352.08l-33.96-18.22l-38.1-2.49l-33.58,20.71c0,0,29.44,86.98-2.87,137.51l-4.97,24.02l102.72,7.46
	c0,0-6.63-107.69,2.49-120.94S775.83,352.08,775.83,352.08z"/>
<path class="st2" d="M764.11,356.6l11.72-4.51c0,0,20.71,18.22,19.88,62.13s-5.3,92.78-5.3,92.78l-15.41,2.49l-8.28-71.24
	l-11.6-62.13L764.11,356.6z"/>
<path class="st2" d="M682.35,356.6l-11.72-4.51c0,0-20.71,18.22-19.88,62.13s5.3,92.78,5.3,92.78l15.41,2.49l8.28-71.24l11.6-62.13
	L682.35,356.6z"/>
<path class="st6" d="M745.9,270.85c-4.75-4.66-11.28-7.05-17.92-6.56c-5.77,0.47-6.15,0.61-11.33,3.18
	c-3.23,1.53-6.37,3.25-9.4,5.14c-0.03-1.23-5.14-5.94-5.97-5.03c-0.83,0.91,2.13,6.84,1.47,7.88s-6.65-2.68-7.27-3.74
	c4.62,6.38,10.73,18.98,9.26,26.72c2.83-3.19,7.7-3.48,10.89-0.66c1.53,1.35,2.46,3.26,2.58,5.3c0.33,5.29-4.58,11.09-1.37,15.31
	c1.83,2.41,5.33,2.62,8.36,2.6l22.43-2.5c4.82-7.68,7.83-13.77,9.14-22.75C758.09,286.78,752.33,277.25,745.9,270.85z"/>
</svg>
