<svg width="504" height="86" viewBox="0 0 504 86" fill="none" xmlns="http://www.w3.org/2000/svg">
<path d="M22.4953 16L26.9663 3.59H29.7883L34.3953 16H32.6783L31.3183 12.294H25.4873L24.1613 16H22.4953ZM26.0143 10.798H30.7573L28.6663 5.086H28.0373L26.0143 10.798ZM37.8827 16L34.7887 6.922H36.4887L39.0897 14.708H39.4467L41.7077 6.922H43.3057L40.6197 16H37.8827ZM46.0528 5.46C45.6901 5.46 45.4181 5.36367 45.2368 5.171C45.0668 4.97833 44.9818 4.73467 44.9818 4.44C44.9818 4.14533 45.0668 3.90167 45.2368 3.709C45.4181 3.51633 45.6901 3.42 46.0528 3.42C46.4155 3.42 46.6818 3.51633 46.8518 3.709C47.0331 3.90167 47.1238 4.14533 47.1238 4.44C47.1238 4.73467 47.0331 4.97833 46.8518 5.171C46.6818 5.36367 46.4155 5.46 46.0528 5.46ZM45.5938 16V8.214H44.1998V6.922H47.2258V16H45.5938ZM52.6083 16.238C51.577 16.238 50.7666 15.983 50.1773 15.473C49.5993 14.9517 49.3103 14.2207 49.3103 13.28C49.3103 12.3167 49.6333 11.5913 50.2793 11.104C50.9253 10.6053 51.8376 10.356 53.0163 10.356H55.3113V10.135C55.3113 8.877 54.6766 8.248 53.4073 8.248C52.886 8.248 52.342 8.25933 51.7753 8.282C51.2086 8.30467 50.7383 8.32733 50.3643 8.35V6.922C50.727 6.888 51.1293 6.86533 51.5713 6.854C52.0246 6.83133 52.4553 6.82 52.8633 6.82C54.2573 6.82 55.2716 7.075 55.9063 7.585C56.5523 8.095 56.8753 8.98467 56.8753 10.254V16H55.5833V14.198C55.1753 15.558 54.1836 16.238 52.6083 16.238ZM52.9483 14.946C53.3336 14.946 53.702 14.878 54.0533 14.742C54.4046 14.5947 54.6936 14.3567 54.9203 14.028C55.1583 13.688 55.2886 13.2233 55.3113 12.634V11.58H52.9483C52.291 11.58 51.7866 11.7387 51.4353 12.056C51.084 12.3733 50.9083 12.7813 50.9083 13.28C50.9083 13.7787 51.084 14.181 51.4353 14.487C51.7866 14.793 52.291 14.946 52.9483 14.946ZM63.1176 16.102C62.4376 16.102 61.8483 16.0057 61.3496 15.813C60.8623 15.6203 60.4826 15.2917 60.2106 14.827C59.9499 14.351 59.8196 13.7107 59.8196 12.906V8.146H58.2556V6.922H59.8196V4.168H61.3836V6.922H64.5116V8.146H61.3836V13.11C61.3836 13.5973 61.5139 13.977 61.7746 14.249C62.0466 14.5097 62.4263 14.64 62.9136 14.64H64.5116V16.102H63.1176ZM67.4319 5.46C67.0692 5.46 66.7972 5.36367 66.6159 5.171C66.4459 4.97833 66.3609 4.73467 66.3609 4.44C66.3609 4.14533 66.4459 3.90167 66.6159 3.709C66.7972 3.51633 67.0692 3.42 67.4319 3.42C67.7946 3.42 68.0609 3.51633 68.2309 3.709C68.4122 3.90167 68.5029 4.14533 68.5029 4.44C68.5029 4.73467 68.4122 4.97833 68.2309 5.171C68.0609 5.36367 67.7946 5.46 67.4319 5.46ZM66.9729 16V8.214H65.5789V6.922H68.6049V16H66.9729ZM75.6534 16.306C74.86 16.306 74.163 16.17 73.5624 15.898C72.9617 15.626 72.4517 15.269 72.0324 14.827C71.6244 14.3737 71.3127 13.8693 71.0974 13.314C70.8934 12.7587 70.7914 12.192 70.7914 11.614V11.308C70.7914 10.73 70.899 10.1633 71.1144 9.608C71.3297 9.04133 71.647 8.537 72.0664 8.095C72.4857 7.64167 72.9957 7.28467 73.5964 7.024C74.197 6.752 74.8827 6.616 75.6534 6.616C76.424 6.616 77.1097 6.752 77.7104 7.024C78.311 7.28467 78.821 7.64167 79.2404 8.095C79.6597 8.537 79.977 9.04133 80.1924 9.608C80.4077 10.1633 80.5154 10.73 80.5154 11.308V11.614C80.5154 12.192 80.4077 12.7587 80.1924 13.314C79.9884 13.8693 79.6767 14.3737 79.2574 14.827C78.8494 15.269 78.345 15.626 77.7444 15.898C77.1437 16.17 76.4467 16.306 75.6534 16.306ZM75.6534 14.844C76.3334 14.844 76.9114 14.6967 77.3874 14.402C77.8747 14.096 78.243 13.688 78.4924 13.178C78.753 12.668 78.8834 12.0957 78.8834 11.461C78.8834 10.815 78.753 10.237 78.4924 9.727C78.2317 9.217 77.8577 8.81467 77.3704 8.52C76.8944 8.22533 76.322 8.078 75.6534 8.078C74.996 8.078 74.4237 8.22533 73.9364 8.52C73.449 8.81467 73.075 9.217 72.8144 9.727C72.5537 10.237 72.4234 10.815 72.4234 11.461C72.4234 12.0957 72.548 12.668 72.7974 13.178C73.058 13.688 73.4264 14.096 73.9024 14.402C74.3897 14.6967 74.9734 14.844 75.6534 14.844ZM82.6707 16V6.922H83.9627V9.03C84.1667 8.25933 84.5293 7.67 85.0507 7.262C85.5833 6.854 86.2747 6.65 87.1247 6.65H87.1927C88.3373 6.65 89.1817 7.007 89.7257 7.721C90.281 8.435 90.5587 9.46633 90.5587 10.815V16H88.9267V10.475C88.9267 9.77233 88.7283 9.21133 88.3317 8.792C87.935 8.36133 87.391 8.146 86.6997 8.146C85.9857 8.146 85.4077 8.367 84.9657 8.809C84.5237 9.251 84.3027 9.84033 84.3027 10.577V16H82.6707Z" fill="white"/>
<path d="M151.073 16V3.59H153.283L156.955 11.869H157.227L160.882 3.59H163.109V16H161.443V5.715L158.043 13.433H156.003L152.603 5.749V16H151.073ZM168.701 16.238C167.67 16.238 166.859 15.983 166.27 15.473C165.692 14.9517 165.403 14.2207 165.403 13.28C165.403 12.3167 165.726 11.5913 166.372 11.104C167.018 10.6053 167.93 10.356 169.109 10.356H171.404V10.135C171.404 8.877 170.769 8.248 169.5 8.248C168.979 8.248 168.435 8.25933 167.868 8.282C167.301 8.30467 166.831 8.32733 166.457 8.35V6.922C166.82 6.888 167.222 6.86533 167.664 6.854C168.117 6.83133 168.548 6.82 168.956 6.82C170.35 6.82 171.364 7.075 171.999 7.585C172.645 8.095 172.968 8.98467 172.968 10.254V16H171.676V14.198C171.268 15.558 170.276 16.238 168.701 16.238ZM169.041 14.946C169.426 14.946 169.795 14.878 170.146 14.742C170.497 14.5947 170.786 14.3567 171.013 14.028C171.251 13.688 171.381 13.2233 171.404 12.634V11.58H169.041C168.384 11.58 167.879 11.7387 167.528 12.056C167.177 12.3733 167.001 12.7813 167.001 13.28C167.001 13.7787 167.177 14.181 167.528 14.487C167.879 14.793 168.384 14.946 169.041 14.946ZM175.674 16V6.922H176.966V9.642C177.102 8.66733 177.459 7.95333 178.037 7.5C178.615 7.04667 179.403 6.82 180.4 6.82H180.706V8.282H180.128C179.222 8.282 178.525 8.52567 178.037 9.013C177.55 9.489 177.306 10.1803 177.306 11.087V16H175.674ZM183.259 5.46C182.896 5.46 182.624 5.36367 182.443 5.171C182.273 4.97833 182.188 4.73467 182.188 4.44C182.188 4.14533 182.273 3.90167 182.443 3.709C182.624 3.51633 182.896 3.42 183.259 3.42C183.622 3.42 183.888 3.51633 184.058 3.709C184.239 3.90167 184.33 4.14533 184.33 4.44C184.33 4.73467 184.239 4.97833 184.058 5.171C183.888 5.36367 183.622 5.46 183.259 5.46ZM182.8 16V8.214H181.406V6.922H184.432V16H182.8ZM187.298 16V6.922H188.59V9.03C188.794 8.25933 189.157 7.67 189.678 7.262C190.211 6.854 190.902 6.65 191.752 6.65H191.82C192.965 6.65 193.809 7.007 194.353 7.721C194.909 8.435 195.186 9.46633 195.186 10.815V16H193.554V10.475C193.554 9.77233 193.356 9.21133 192.959 8.792C192.563 8.36133 192.019 8.146 191.327 8.146C190.613 8.146 190.035 8.367 189.593 8.809C189.151 9.251 188.93 9.84033 188.93 10.577V16H187.298ZM201.742 16.306C200.949 16.306 200.263 16.17 199.685 15.898C199.107 15.626 198.637 15.269 198.274 14.827C197.912 14.3737 197.64 13.8693 197.458 13.314C197.288 12.7587 197.203 12.192 197.203 11.614V11.308C197.203 10.7187 197.288 10.1463 197.458 9.591C197.64 9.03567 197.912 8.537 198.274 8.095C198.637 7.64167 199.096 7.28467 199.651 7.024C200.218 6.752 200.881 6.616 201.64 6.616C202.626 6.616 203.437 6.83133 204.071 7.262C204.717 7.68133 205.193 8.22533 205.499 8.894C205.817 9.56267 205.975 10.2767 205.975 11.036V11.767H198.767C198.824 12.6623 199.09 13.4047 199.566 13.994C200.042 14.5833 200.768 14.878 201.742 14.878C202.456 14.878 203.034 14.7193 203.476 14.402C203.93 14.0847 204.202 13.7163 204.292 13.297H205.822C205.63 14.2377 205.171 14.9743 204.445 15.507C203.72 16.0397 202.819 16.306 201.742 16.306ZM201.64 8.044C200.824 8.044 200.184 8.27633 199.719 8.741C199.255 9.19433 198.96 9.795 198.835 10.543H204.377C204.275 9.77233 203.998 9.166 203.544 8.724C203.091 8.27067 202.456 8.044 201.64 8.044Z" fill="white"/>
<path d="M262.66 16L267.131 3.59H269.953L274.56 16H272.843L271.483 12.294H265.652L264.326 16H262.66ZM266.179 10.798H270.922L268.831 5.086H268.202L266.179 10.798ZM279.354 16.272C278.278 16.272 277.45 15.9207 276.872 15.218C276.294 14.5153 276.005 13.501 276.005 12.175V6.905H277.637V12.498C277.637 13.212 277.83 13.773 278.215 14.181C278.601 14.5777 279.122 14.776 279.779 14.776C280.459 14.776 281.015 14.5607 281.445 14.13C281.876 13.688 282.091 13.0873 282.091 12.328V6.905H283.723V16H282.431V13.909C282.227 14.6797 281.876 15.269 281.377 15.677C280.879 16.0737 280.227 16.272 279.422 16.272H279.354ZM290.131 16.102C289.451 16.102 288.862 16.0057 288.363 15.813C287.876 15.6203 287.496 15.2917 287.224 14.827C286.963 14.351 286.833 13.7107 286.833 12.906V8.146H285.269V6.922H286.833V4.168H288.397V6.922H291.525V8.146H288.397V13.11C288.397 13.5973 288.527 13.977 288.788 14.249C289.06 14.5097 289.44 14.64 289.927 14.64H291.525V16.102H290.131ZM297.66 16.306C296.867 16.306 296.17 16.17 295.569 15.898C294.968 15.626 294.458 15.269 294.039 14.827C293.631 14.3737 293.319 13.8693 293.104 13.314C292.9 12.7587 292.798 12.192 292.798 11.614V11.308C292.798 10.73 292.906 10.1633 293.121 9.608C293.336 9.04133 293.654 8.537 294.073 8.095C294.492 7.64167 295.002 7.28467 295.603 7.024C296.204 6.752 296.889 6.616 297.66 6.616C298.431 6.616 299.116 6.752 299.717 7.024C300.318 7.28467 300.828 7.64167 301.247 8.095C301.666 8.537 301.984 9.04133 302.199 9.608C302.414 10.1633 302.522 10.73 302.522 11.308V11.614C302.522 12.192 302.414 12.7587 302.199 13.314C301.995 13.8693 301.683 14.3737 301.264 14.827C300.856 15.269 300.352 15.626 299.751 15.898C299.15 16.17 298.453 16.306 297.66 16.306ZM297.66 14.844C298.34 14.844 298.918 14.6967 299.394 14.402C299.881 14.096 300.25 13.688 300.499 13.178C300.76 12.668 300.89 12.0957 300.89 11.461C300.89 10.815 300.76 10.237 300.499 9.727C300.238 9.217 299.864 8.81467 299.377 8.52C298.901 8.22533 298.329 8.078 297.66 8.078C297.003 8.078 296.43 8.22533 295.943 8.52C295.456 8.81467 295.082 9.217 294.821 9.727C294.56 10.237 294.43 10.815 294.43 11.461C294.43 12.0957 294.555 12.668 294.804 13.178C295.065 13.688 295.433 14.096 295.909 14.402C296.396 14.6967 296.98 14.844 297.66 14.844ZM304.677 16V6.922H305.969V9.013C306.162 8.25367 306.502 7.67 306.989 7.262C307.488 6.854 308.134 6.65 308.927 6.65H308.995C309.766 6.65 310.395 6.84267 310.882 7.228C311.37 7.61333 311.715 8.16867 311.919 8.894C312.135 8.16867 312.486 7.61333 312.973 7.228C313.472 6.84267 314.107 6.65 314.877 6.65H314.945C316.022 6.65 316.821 7.01833 317.342 7.755C317.875 8.48033 318.141 9.50033 318.141 10.815V16H316.509V10.458C316.509 9.72133 316.328 9.15467 315.965 8.758C315.603 8.35 315.098 8.146 314.452 8.146C313.784 8.146 313.245 8.36133 312.837 8.792C312.429 9.21133 312.225 9.80067 312.225 10.56V16H310.593V10.458C310.593 9.72133 310.412 9.15467 310.049 8.758C309.687 8.35 309.182 8.146 308.536 8.146C307.868 8.146 307.329 8.36133 306.921 8.792C306.513 9.21133 306.309 9.80067 306.309 10.56V16H304.677ZM325.022 16.306C324.229 16.306 323.532 16.17 322.931 15.898C322.331 15.626 321.821 15.269 321.401 14.827C320.993 14.3737 320.682 13.8693 320.466 13.314C320.262 12.7587 320.16 12.192 320.16 11.614V11.308C320.16 10.73 320.268 10.1633 320.483 9.608C320.699 9.04133 321.016 8.537 321.435 8.095C321.855 7.64167 322.365 7.28467 322.965 7.024C323.566 6.752 324.252 6.616 325.022 6.616C325.793 6.616 326.479 6.752 327.079 7.024C327.68 7.28467 328.19 7.64167 328.609 8.095C329.029 8.537 329.346 9.04133 329.561 9.608C329.777 10.1633 329.884 10.73 329.884 11.308V11.614C329.884 12.192 329.777 12.7587 329.561 13.314C329.357 13.8693 329.046 14.3737 328.626 14.827C328.218 15.269 327.714 15.626 327.113 15.898C326.513 16.17 325.816 16.306 325.022 16.306ZM325.022 14.844C325.702 14.844 326.28 14.6967 326.756 14.402C327.244 14.096 327.612 13.688 327.861 13.178C328.122 12.668 328.252 12.0957 328.252 11.461C328.252 10.815 328.122 10.237 327.861 9.727C327.601 9.217 327.227 8.81467 326.739 8.52C326.263 8.22533 325.691 8.078 325.022 8.078C324.365 8.078 323.793 8.22533 323.305 8.52C322.818 8.81467 322.444 9.217 322.183 9.727C321.923 10.237 321.792 10.815 321.792 11.461C321.792 12.0957 321.917 12.668 322.166 13.178C322.427 13.688 322.795 14.096 323.271 14.402C323.759 14.6967 324.342 14.844 325.022 14.844ZM335.576 16.102C334.896 16.102 334.306 16.0057 333.808 15.813C333.32 15.6203 332.941 15.2917 332.669 14.827C332.408 14.351 332.278 13.7107 332.278 12.906V8.146H330.714V6.922H332.278V4.168H333.842V6.922H336.97V8.146H333.842V13.11C333.842 13.5973 333.972 13.977 334.233 14.249C334.505 14.5097 334.884 14.64 335.372 14.64H336.97V16.102H335.576ZM339.89 5.46C339.527 5.46 339.255 5.36367 339.074 5.171C338.904 4.97833 338.819 4.73467 338.819 4.44C338.819 4.14533 338.904 3.90167 339.074 3.709C339.255 3.51633 339.527 3.42 339.89 3.42C340.253 3.42 340.519 3.51633 340.689 3.709C340.87 3.90167 340.961 4.14533 340.961 4.44C340.961 4.73467 340.87 4.97833 340.689 5.171C340.519 5.36367 340.253 5.46 339.89 5.46ZM339.431 16V8.214H338.037V6.922H341.063V16H339.431ZM345.867 16L342.773 6.922H344.473L347.074 14.708H347.431L349.692 6.922H351.29L348.604 16H345.867ZM356.83 16.306C356.036 16.306 355.351 16.17 354.773 15.898C354.195 15.626 353.724 15.269 353.362 14.827C352.999 14.3737 352.727 13.8693 352.546 13.314C352.376 12.7587 352.291 12.192 352.291 11.614V11.308C352.291 10.7187 352.376 10.1463 352.546 9.591C352.727 9.03567 352.999 8.537 353.362 8.095C353.724 7.64167 354.183 7.28467 354.739 7.024C355.305 6.752 355.968 6.616 356.728 6.616C357.714 6.616 358.524 6.83133 359.159 7.262C359.805 7.68133 360.281 8.22533 360.587 8.894C360.904 9.56267 361.063 10.2767 361.063 11.036V11.767H353.855C353.911 12.6623 354.178 13.4047 354.654 13.994C355.13 14.5833 355.855 14.878 356.83 14.878C357.544 14.878 358.122 14.7193 358.564 14.402C359.017 14.0847 359.289 13.7163 359.38 13.297H360.91C360.717 14.2377 360.258 14.9743 359.533 15.507C358.807 16.0397 357.906 16.306 356.83 16.306ZM356.728 8.044C355.912 8.044 355.271 8.27633 354.807 8.741C354.342 9.19433 354.047 9.795 353.923 10.543H359.465C359.363 9.77233 359.085 9.166 358.632 8.724C358.178 8.27067 357.544 8.044 356.728 8.044Z" fill="white"/>
<path d="M404.825 16L401.476 3.59H403.193L405.998 14.504H406.525L408.803 4.1H410.928L413.495 14.504H414.022L416.521 3.59H418.187L415.144 16H412.288L409.857 6.31L407.664 16H404.825ZM423.738 16.306C422.945 16.306 422.248 16.17 421.647 15.898C421.047 15.626 420.537 15.269 420.117 14.827C419.709 14.3737 419.398 13.8693 419.182 13.314C418.978 12.7587 418.876 12.192 418.876 11.614V11.308C418.876 10.73 418.984 10.1633 419.199 9.608C419.415 9.04133 419.732 8.537 420.151 8.095C420.571 7.64167 421.081 7.28467 421.681 7.024C422.282 6.752 422.968 6.616 423.738 6.616C424.509 6.616 425.195 6.752 425.795 7.024C426.396 7.28467 426.906 7.64167 427.325 8.095C427.745 8.537 428.062 9.04133 428.277 9.608C428.493 10.1633 428.6 10.73 428.6 11.308V11.614C428.6 12.192 428.493 12.7587 428.277 13.314C428.073 13.8693 427.762 14.3737 427.342 14.827C426.934 15.269 426.43 15.626 425.829 15.898C425.229 16.17 424.532 16.306 423.738 16.306ZM423.738 14.844C424.418 14.844 424.996 14.6967 425.472 14.402C425.96 14.096 426.328 13.688 426.577 13.178C426.838 12.668 426.968 12.0957 426.968 11.461C426.968 10.815 426.838 10.237 426.577 9.727C426.317 9.217 425.943 8.81467 425.455 8.52C424.979 8.22533 424.407 8.078 423.738 8.078C423.081 8.078 422.509 8.22533 422.021 8.52C421.534 8.81467 421.16 9.217 420.899 9.727C420.639 10.237 420.508 10.815 420.508 11.461C420.508 12.0957 420.633 12.668 420.882 13.178C421.143 13.688 421.511 14.096 421.987 14.402C422.475 14.6967 423.058 14.844 423.738 14.844ZM430.756 16V6.922H432.048V9.642C432.184 8.66733 432.541 7.95333 433.119 7.5C433.697 7.04667 434.484 6.82 435.482 6.82H435.788V8.282H435.21C434.303 8.282 433.606 8.52567 433.119 9.013C432.631 9.489 432.388 10.1803 432.388 11.087V16H430.756ZM437.439 16V3.59H439.071V11.427L442.947 6.922H444.664L441.315 10.798L445.582 16H443.695L440.278 11.767H439.071V16H437.439ZM446.896 16V3.59H448.528V8.52C448.777 7.91933 449.134 7.46033 449.599 7.143C450.075 6.81433 450.681 6.65 451.418 6.65H451.486C452.574 6.65 453.395 7.01267 453.951 7.738C454.506 8.452 454.784 9.47767 454.784 10.815V16H453.152V10.475C453.152 9.73833 452.942 9.166 452.523 8.758C452.115 8.35 451.582 8.146 450.925 8.146C450.199 8.146 449.616 8.38967 449.174 8.877C448.743 9.353 448.528 9.982 448.528 10.764V16H446.896ZM461.663 16.306C460.869 16.306 460.172 16.17 459.572 15.898C458.971 15.626 458.461 15.269 458.042 14.827C457.634 14.3737 457.322 13.8693 457.107 13.314C456.903 12.7587 456.801 12.192 456.801 11.614V11.308C456.801 10.73 456.908 10.1633 457.124 9.608C457.339 9.04133 457.656 8.537 458.076 8.095C458.495 7.64167 459.005 7.28467 459.606 7.024C460.206 6.752 460.892 6.616 461.663 6.616C462.433 6.616 463.119 6.752 463.72 7.024C464.32 7.28467 464.83 7.64167 465.25 8.095C465.669 8.537 465.986 9.04133 466.202 9.608C466.417 10.1633 466.525 10.73 466.525 11.308V11.614C466.525 12.192 466.417 12.7587 466.202 13.314C465.998 13.8693 465.686 14.3737 465.267 14.827C464.859 15.269 464.354 15.626 463.754 15.898C463.153 16.17 462.456 16.306 461.663 16.306ZM461.663 14.844C462.343 14.844 462.921 14.6967 463.397 14.402C463.884 14.096 464.252 13.688 464.502 13.178C464.762 12.668 464.893 12.0957 464.893 11.461C464.893 10.815 464.762 10.237 464.502 9.727C464.241 9.217 463.867 8.81467 463.38 8.52C462.904 8.22533 462.331 8.078 461.663 8.078C461.005 8.078 460.433 8.22533 459.946 8.52C459.458 8.81467 459.084 9.217 458.824 9.727C458.563 10.237 458.433 10.815 458.433 11.461C458.433 12.0957 458.557 12.668 458.807 13.178C459.067 13.688 459.436 14.096 459.912 14.402C460.399 14.6967 460.983 14.844 461.663 14.844ZM468.68 16V6.922H469.972V9.642C470.108 8.66733 470.465 7.95333 471.043 7.5C471.621 7.04667 472.409 6.82 473.406 6.82H473.712V8.282H473.134C472.227 8.282 471.53 8.52567 471.043 9.013C470.556 9.489 470.312 10.1803 470.312 11.087V16H468.68ZM478.338 16.272C477.148 16.272 476.225 16.017 475.567 15.507C474.921 14.997 474.587 14.3 474.564 13.416H476.094C476.117 13.7673 476.293 14.1017 476.621 14.419C476.961 14.725 477.534 14.878 478.338 14.878C479.064 14.878 479.619 14.7363 480.004 14.453C480.39 14.1583 480.582 13.8013 480.582 13.382C480.582 13.008 480.441 12.719 480.157 12.515C479.874 12.2997 479.415 12.158 478.78 12.09L477.794 11.988C476.933 11.8973 476.23 11.6423 475.686 11.223C475.142 10.7923 474.87 10.1917 474.87 9.421C474.87 8.54833 475.193 7.86833 475.839 7.381C476.485 6.89367 477.318 6.65 478.338 6.65C479.358 6.65 480.186 6.87667 480.82 7.33C481.455 7.78333 481.784 8.45767 481.806 9.353H480.276C480.265 8.99033 480.095 8.68433 479.766 8.435C479.449 8.17433 478.973 8.044 478.338 8.044C477.704 8.044 477.222 8.17433 476.893 8.435C476.565 8.69567 476.4 9.02433 476.4 9.421C476.4 9.761 476.514 10.033 476.74 10.237C476.978 10.441 477.364 10.5713 477.896 10.628L478.882 10.73C479.857 10.832 480.639 11.104 481.228 11.546C481.818 11.9767 482.112 12.5887 482.112 13.382C482.112 13.9487 481.948 14.453 481.619 14.895C481.302 15.3257 480.86 15.6657 480.294 15.915C479.727 16.153 479.075 16.272 478.338 16.272ZM488.048 16.306C487.254 16.306 486.569 16.17 485.991 15.898C485.413 15.626 484.942 15.269 484.58 14.827C484.217 14.3737 483.945 13.8693 483.764 13.314C483.594 12.7587 483.509 12.192 483.509 11.614V11.308C483.509 10.7187 483.594 10.1463 483.764 9.591C483.945 9.03567 484.217 8.537 484.58 8.095C484.942 7.64167 485.401 7.28467 485.957 7.024C486.523 6.752 487.186 6.616 487.946 6.616C488.932 6.616 489.742 6.83133 490.377 7.262C491.023 7.68133 491.499 8.22533 491.805 8.894C492.122 9.56267 492.281 10.2767 492.281 11.036V11.767H485.073C485.129 12.6623 485.396 13.4047 485.872 13.994C486.348 14.5833 487.073 14.878 488.048 14.878C488.762 14.878 489.34 14.7193 489.782 14.402C490.235 14.0847 490.507 13.7163 490.598 13.297H492.128C491.935 14.2377 491.476 14.9743 490.751 15.507C490.025 16.0397 489.124 16.306 488.048 16.306ZM487.946 8.044C487.13 8.044 486.489 8.27633 486.025 8.741C485.56 9.19433 485.265 9.795 485.141 10.543H490.683C490.581 9.77233 490.303 9.166 489.85 8.724C489.396 8.27067 488.762 8.044 487.946 8.044Z" fill="white"/>
<path d="M165.815 82.2067L165.601 82.0967L165.387 82.2057C162.171 83.8391 158.707 84.7286 155.2 84.7286H152.6C151.43 84.7286 150.471 83.7697 150.471 82.6C150.471 81.4303 151.43 80.4714 152.6 80.4714H155.2C158.385 80.4714 161.559 79.5352 164.429 77.8615C165.171 77.4485 166.032 77.4522 166.741 77.8594C169.543 79.5099 172.735 80.3804 175.987 80.3804C179.238 80.3804 182.429 79.5105 185.23 77.861C185.972 77.4483 186.833 77.4524 187.542 77.8601C190.439 79.5342 193.613 80.4714 196.8 80.4714H199.4C200.57 80.4714 201.529 81.4303 201.529 82.6C201.529 83.7697 200.57 84.7286 199.4 84.7286H196.8C193.29 84.7286 189.828 83.8641 186.616 82.2071L186.4 82.0958L186.185 82.2067C183.034 83.8258 179.542 84.6703 176 84.6703C172.458 84.6703 168.966 83.8258 165.815 82.2067ZM201.418 57.2977L201.418 57.2977L201.417 57.303L196.575 74.3263C193.501 74.2631 190.699 72.9123 188.45 70.9853C187.259 69.9484 185.541 69.9484 184.35 70.9853C182.046 72.9593 179.162 74.3286 176 74.3286C172.838 74.3286 169.954 72.9592 167.65 70.9852C166.459 69.9484 164.741 69.9484 163.55 70.9853C161.301 72.9123 158.499 74.2631 155.425 74.3263L150.583 57.303L150.58 57.2914L150.576 57.2799C150.253 56.3319 150.653 54.956 151.982 54.5553L151.982 54.5554L151.992 54.5522L155.346 53.4602L155.671 53.3543V53.012V41C155.671 38.4003 157.8 36.2714 160.4 36.2714H168.2H168.671V35.8V30.6C168.671 29.4303 169.63 28.4714 170.8 28.4714H181.2C182.37 28.4714 183.329 29.4303 183.329 30.6V35.8V36.2714H183.8H191.6C194.2 36.2714 196.329 38.4003 196.329 41V53.012V53.3543L196.654 53.4602L200.008 54.5522L200.013 54.5537C200.773 54.7927 201.169 55.2713 201.36 55.7855C201.558 56.3204 201.535 56.9041 201.418 57.2977ZM160.4 40.5286H159.929V41V51.322V51.9737L160.548 51.7697L174.507 47.1686C175.479 46.861 176.495 46.861 177.467 47.1686C177.468 47.1688 177.469 47.1691 177.47 47.1693L191.453 51.7698L192.071 51.9733V51.322V41V40.5286H191.6H160.4Z" fill="#F6E27B" fill-opacity="0.21" stroke="#F6E27B" stroke-width="0.942757"/>
<path d="M97 58H106" stroke="#F6E27B" stroke-width="2" stroke-linecap="round"/>
<path d="M78 58H87" stroke="#F6E27B" stroke-width="2" stroke-linecap="round"/>
<path d="M114 58H123" stroke="#F6E27B" stroke-width="2" stroke-linecap="round"/>
<path d="M131 58H140" stroke="#F6E27B" stroke-width="2" stroke-linecap="round"/>
<path d="M212 58H221" stroke="#F6E27B" stroke-width="2" stroke-linecap="round"/>
<path d="M351 58H360" stroke="#F6E27B" stroke-width="2" stroke-linecap="round"/>
<path d="M229 58H238" stroke="#F6E27B" stroke-width="2" stroke-linecap="round"/>
<path d="M368 58H377" stroke="#F6E27B" stroke-width="2" stroke-linecap="round"/>
<path d="M246 58H255" stroke="#F6E27B" stroke-width="2" stroke-linecap="round"/>
<path d="M264 58H273" stroke="#F6E27B" stroke-width="2" stroke-linecap="round"/>
<path d="M385 58H394" stroke="#F6E27B" stroke-width="2" stroke-linecap="round"/>
<path d="M403 58H412" stroke="#F6E27B" stroke-width="2" stroke-linecap="round"/>
<path d="M447.124 65.6372V68.3142H435.399V65.6283V65.1283H434.899H420.5V53.261C420.573 53.2573 420.644 53.255 420.719 53.255C430.563 53.255 440.408 53.2576 450.252 53.2628H450.252C450.523 53.2628 450.783 53.2205 451.026 53.095C451.27 52.9697 451.455 52.7834 451.612 52.5658L451.612 52.5655C457.104 44.9659 462.6 37.3703 468.1 29.7788L468.111 29.7644L468.12 29.7493C468.171 29.6668 468.244 29.6002 468.33 29.5566C468.417 29.513 468.513 29.494 468.609 29.5016L468.627 29.5031L468.645 29.5032C470.734 29.5183 472.824 29.5164 474.912 29.5145C475.44 29.514 475.969 29.5135 476.497 29.5133L476.491 60.4277C476.461 60.5392 476.433 60.6478 476.406 60.7546C476.339 61.0148 476.274 61.2645 476.197 61.5202C475.236 64.7081 472.193 66.6641 468.826 66.2407C465.725 65.8498 463.216 63.1162 463.117 59.8975C463.069 58.2899 463.081 56.6882 463.093 55.0638C463.097 54.4935 463.102 53.9203 463.103 53.3431H465.443V55.9755V56.4755H465.943H473.602H474.102V55.9755V32.3622V31.8622H473.602C473.319 31.8622 473.042 31.8661 472.768 31.8701C472.137 31.8791 471.521 31.8879 470.898 31.8476C470.527 31.8231 470.188 31.8761 469.886 32.0614C469.594 32.2406 469.393 32.5093 469.228 32.7971C463.069 43.5 456.898 54.1965 450.715 64.8868L450.714 64.8884C450.626 65.0421 450.57 65.0939 450.536 65.1155C450.512 65.1306 450.458 65.1573 450.31 65.1501L450.309 65.15C449.682 65.121 449.047 65.1267 448.409 65.1325C448.148 65.1348 447.886 65.1372 447.624 65.1372H447.124V65.6372Z" fill="#F6E27B" fill-opacity="0.21" stroke="#F6E27B"/>
<path d="M441.704 35.6967L441.704 35.6969C443.87 40.302 446.048 44.903 448.236 49.5H430.5V35.5111C430.534 35.5094 430.568 35.5085 430.603 35.5085H430.604C434.18 35.5085 437.758 35.5085 441.335 35.5C441.505 35.5 441.564 35.522 441.588 35.5347C441.599 35.541 441.642 35.5647 441.704 35.6967Z" fill="#F6E27B" fill-opacity="0.21" stroke="#F6E27B"/>
<path d="M50.4193 40.5463L39.7223 48.4503L28.8787 45.2654L28.7378 45.7451L28.8645 45.2614C28.7725 45.2373 28.6883 45.1853 28.6236 45.1107C28.5588 45.036 28.5167 44.9421 28.504 44.8411C28.4913 44.74 28.5089 44.6377 28.5537 44.5476C28.5985 44.4577 28.668 44.3849 28.7521 44.3375L28.7521 44.3376L28.759 44.3336L34.2903 41.0983L34.2996 41.0928L34.3088 41.0869C34.3795 41.0413 34.4597 41.0149 34.542 41.0094L50.4193 40.5463Z" fill="#F6E27B" fill-opacity="0.21" stroke="#F6E27B"/>
<path d="M65.4536 32.6531L65.4542 32.6532L77.5212 35.2522L77.6265 34.7634L77.5265 35.2533C78.0226 35.3547 78.4754 35.6057 78.8235 35.9722C79.1716 36.3387 79.3983 36.8029 79.473 37.302C79.5476 37.801 79.4668 38.3109 79.2412 38.7627C79.0157 39.2145 78.6563 39.5864 78.2116 39.8278L78.2115 39.8277L78.2046 39.8317C73.0527 42.7361 65.7371 46.8441 58.077 51.0858L57.8689 51.201L57.827 51.4352L53.2875 76.8329L53.2874 76.8336C53.2485 77.0534 53.1333 77.2527 52.9618 77.3966C52.9615 77.3968 52.9611 77.3971 52.9608 77.3974L48.1738 81.3711L48.1732 81.3716C48.0959 81.436 48.0023 81.4782 47.9025 81.4936C47.8027 81.5089 47.7006 81.4967 47.6072 81.4585C47.5139 81.4202 47.433 81.3573 47.3731 81.2767C47.3132 81.1961 47.2766 81.1008 47.2671 81.0011L47.267 81.0002L45.1217 59.0042L45.0482 58.2502L44.3838 58.6142C39.0316 61.5469 34.0928 64.2112 30.1891 66.2588C26.2796 68.3095 23.439 69.7252 22.2517 70.1834C22.1639 70.2137 22.0697 70.2214 21.978 70.2059C21.8844 70.19 21.7966 70.1505 21.7229 70.0912L21.7197 70.0886L13.2004 63.3461C13.1997 63.3455 13.1991 63.345 13.1984 63.3445C12.8913 63.0952 12.6703 62.7562 12.5664 62.3754C12.4623 61.9937 12.481 61.5891 12.6198 61.2185C12.7587 60.848 13.0108 60.5301 13.3407 60.3099C13.67 60.0902 14.0602 59.9789 14.4564 59.9919C14.4571 59.9919 14.4579 59.9919 14.4587 59.9919L23.2072 60.374L23.3814 60.3816L23.5225 60.2792L59.9727 33.8496L59.9727 33.8497L59.9787 33.8452C60.7521 33.2664 61.6413 32.8604 62.586 32.6547C63.5307 32.449 64.5087 32.4484 65.4536 32.6531Z" fill="#F6E27B" fill-opacity="0.21" stroke="#F6E27B"/>
<path d="M331.288 52.6695L331.438 52.8571H331.679H333.214C338.027 52.8571 341.929 56.7586 341.929 61.5714V69.25C341.929 69.8223 341.465 70.2857 340.893 70.2857H336.286H335.786V70.7857C335.786 75.5985 331.884 79.5 327.071 79.5C322.259 79.5 318.357 75.5985 318.357 70.7857V70.2857H317.857H305.571H305.071V70.7857C305.071 75.5985 301.17 79.5 296.357 79.5C291.544 79.5 287.643 75.5985 287.643 70.7857V70.2857H287.143H282.536C281.963 70.2857 281.5 69.8223 281.5 69.25V58.5C281.5 55.8773 283.299 53.6885 285.733 53.0581L285.979 52.9941L286.073 52.7568L290.67 41.0471C290.67 41.0466 290.67 41.0461 290.67 41.0456C291.528 38.9039 293.602 37.5 295.909 37.5H316.44C316.44 37.5 316.44 37.5 316.44 37.5C317.287 37.5001 318.122 37.6905 318.885 38.0571C319.648 38.4237 320.318 38.9571 320.847 39.6178C320.847 39.6179 320.847 39.6179 320.847 39.6179L331.288 52.6695ZM303.268 52.8571H303.768V52.3571V43.1429V42.6429H303.268H295.909H295.57L295.445 42.9572L291.759 52.1714L291.485 52.8571H292.223H303.268ZM307.375 52.3571V52.8571H307.875H323.812H324.852L324.202 52.0448L316.831 42.8305L316.681 42.6429H316.44H307.875H307.375V43.1429V52.3571ZM291.25 70.7857C291.25 73.6025 293.54 75.8929 296.357 75.8929C299.174 75.8929 301.464 73.6025 301.464 70.7857C301.464 67.9689 299.174 65.6786 296.357 65.6786C293.54 65.6786 291.25 67.9689 291.25 70.7857ZM321.964 70.7857C321.964 73.6025 324.255 75.8929 327.071 75.8929C329.888 75.8929 332.179 73.6025 332.179 70.7857C332.179 67.9689 329.888 65.6786 327.071 65.6786C324.255 65.6786 321.964 67.9689 321.964 70.7857Z" fill="#F6E27B" fill-opacity="0.21" stroke="#F6E27B"/>
<rect x="420.5" y="70.5" width="53" height="13" rx="6.5" fill="#F6E27B" fill-opacity="0.21" stroke="#F6E27B"/>
<rect x="423.5" y="35.5" width="5" height="14" fill="#F6E27B" fill-opacity="0.21" stroke="#F6E27B"/>
</svg>
