<svg width="515" height="318" viewBox="0 0 515 318" fill="none" xmlns="http://www.w3.org/2000/svg">
<path d="M508.432 270.977L508.433 270.981L514.142 287.421V309.399C514.142 310.64 513.124 311.657 511.884 311.657H509.126C507.885 311.657 506.868 310.64 506.868 309.399V306.641V306.141H506.368H473.274H472.774V306.641V309.399C472.774 310.64 471.756 311.657 470.516 311.657H467.758C466.517 311.657 465.5 310.64 465.5 309.399V287.421L471.207 270.984C471.208 270.984 471.208 270.983 471.208 270.983C471.72 269.545 473.055 268.531 474.653 268.531H504.989C506.592 268.531 507.948 269.55 508.432 270.977ZM472.277 281.657L472.047 282.321H472.75H506.864H507.567L507.337 281.657L504.469 273.383L504.352 273.047H503.996H475.618H475.262L475.145 273.383L472.277 281.657ZM472.774 294.231C472.774 296.796 474.845 298.868 477.41 298.868C479.976 298.868 482.047 296.796 482.047 294.231C482.047 291.666 479.976 289.594 477.41 289.594C474.845 289.594 472.774 291.666 472.774 294.231ZM497.594 294.231C497.594 296.796 499.666 298.868 502.231 298.868C504.796 298.868 506.868 296.796 506.868 294.231C506.868 291.666 504.796 289.594 502.231 289.594C499.666 289.594 497.594 291.666 497.594 294.231Z" fill="#F6E27B" fill-opacity="0.21" stroke="#F6E27B"/>
<path d="M353.549 314.381L353.776 314.498C357.118 316.215 360.821 317.111 364.579 317.111C368.336 317.111 372.04 316.215 375.382 314.498L375.611 314.38L375.839 314.498C379.247 316.256 382.919 317.173 386.642 317.173H389.399C390.64 317.173 391.657 316.156 391.657 314.915C391.657 313.675 390.64 312.657 389.399 312.657H386.642C383.261 312.657 379.894 311.663 376.822 309.888M353.549 314.381L377.072 309.455M353.549 314.381L353.321 314.497C349.91 316.23 346.236 317.173 342.516 317.173H339.758C338.517 317.173 337.5 316.156 337.5 314.915C337.5 313.675 338.517 312.657 339.758 312.657H342.516C345.894 312.657 349.261 311.664 352.306 309.889C353.093 309.451 354.006 309.455 354.757 309.887M353.549 314.381L354.757 309.887M376.822 309.888C376.822 309.888 376.822 309.888 376.822 309.888L377.072 309.455M376.822 309.888C376.822 309.888 376.822 309.888 376.822 309.888L377.072 309.455M376.822 309.888C376.07 309.455 375.157 309.451 374.37 309.888M377.072 309.455C376.162 308.931 375.059 308.931 374.121 309.455M374.37 309.888C374.371 309.887 374.373 309.886 374.375 309.885L374.121 309.455M374.37 309.888C371.398 311.638 368.013 312.561 364.565 312.561C361.116 312.561 357.729 311.638 354.757 309.887M374.37 309.888C374.368 309.889 374.366 309.89 374.365 309.891L374.121 309.455M374.121 309.455L354.757 309.887M391.54 288.077L391.54 288.077L391.539 288.082L386.403 306.139C383.143 306.072 380.17 304.639 377.785 302.595C376.522 301.495 374.699 301.495 373.435 302.595C370.992 304.689 367.932 306.142 364.579 306.142C361.225 306.142 358.165 304.689 355.722 302.596C354.459 301.495 352.636 301.495 351.373 302.595C348.987 304.639 346.015 306.072 342.755 306.139L337.619 288.082L337.615 288.07L337.611 288.058C337.268 287.052 337.693 285.593 339.102 285.168L339.102 285.168L339.113 285.164L342.671 284.006L343.016 283.894V283.531V270.789C343.016 268.032 345.274 265.774 348.031 265.774H356.305H356.805V265.274V259.758C356.805 258.517 357.822 257.5 359.063 257.5H370.094C371.335 257.5 372.352 258.517 372.352 259.758V265.274V265.774H372.852H381.126C383.883 265.774 386.142 268.032 386.142 270.789V283.531V283.894L386.487 284.006L390.044 285.164L390.049 285.166C390.856 285.42 391.276 285.927 391.478 286.473C391.688 287.04 391.664 287.659 391.54 288.077ZM348.031 270.289H347.531V270.789V281.738V282.429L348.188 282.213L362.995 277.332C364.026 277.006 365.104 277.006 366.135 277.332C366.136 277.333 366.137 277.333 366.137 277.333L380.97 282.213L381.626 282.429V281.738V270.789V270.289H381.126H348.031Z" fill="#F6E27B" fill-opacity="0.21" stroke="#F6E27B"/>
<path d="M236.457 310.914L226.047 313.517V310.304L232.699 306.313L232.942 306.167V305.884V290.715V290.047L232.301 290.236L209.5 296.942V292.38L232.695 278.736L232.942 278.591V278.305V263.137C232.942 261.124 234.566 259.5 236.579 259.5C238.592 259.5 240.215 261.124 240.215 263.137V278.305V278.591L240.462 278.736L263.657 292.38V296.942L240.857 290.236L240.215 290.047V290.715V305.884V306.167L240.458 306.313L247.11 310.304V313.517L236.7 310.914L236.579 310.884L236.457 310.914Z" fill="#F6E27B" fill-opacity="0.21" stroke="#F6E27B"/>
<path d="M164.997 134.976L165.983 135.141L165.983 135.138L164.997 134.976ZM13.9762 130.472L14.9627 130.636L14.9631 130.633L13.9762 130.472ZM126.562 130.472L127.548 130.637L127.55 130.631L126.562 130.472ZM52.4107 134.976L53.3954 135.15L53.3968 135.142L53.3981 135.134L52.4107 134.976ZM165.983 135.138C170.442 108.113 165.379 86.7572 153.535 72.1423C141.688 57.5244 123.185 49.8079 101.094 49.8079V51.8079C122.718 51.8079 140.592 59.3488 151.981 73.4015C163.372 87.4571 168.403 108.186 164.01 134.813L165.983 135.138ZM101.094 49.8079C58.6549 49.8079 21.4505 78.447 12.9892 130.311L14.9631 130.633C23.2733 79.6948 59.6768 51.8079 101.094 51.8079V49.8079ZM12.9896 130.309C8.53065 157.219 13.5938 178.46 25.4799 192.989C37.3673 207.519 55.9479 215.174 78.189 215.174V213.174C56.4052 213.174 38.4535 205.688 27.0279 191.722C15.6009 177.755 10.5701 157.145 14.9627 130.636L12.9896 130.309ZM78.189 215.174C120.238 215.174 157.287 187.004 165.983 135.141L164.01 134.81C155.469 185.75 119.221 213.174 78.189 213.174V215.174ZM125.576 130.307C122.92 146.165 117.239 158.462 109.337 166.782C101.452 175.084 91.3101 179.476 79.5867 179.476V181.476C91.8557 181.476 102.523 176.861 110.788 168.159C119.036 159.474 124.847 146.77 127.548 130.637L125.576 130.307ZM79.5867 179.476C69.0425 179.476 61.2789 175.776 56.742 168.55C52.1663 161.262 50.7362 150.181 53.3954 135.15L51.426 134.801C48.7278 150.052 50.0929 161.721 55.0482 169.613C60.0422 177.567 68.5454 181.476 79.5867 181.476V179.476ZM53.3981 135.134C55.938 119.279 61.5999 106.866 69.5507 98.4305C77.486 90.0118 87.7439 85.5061 99.6192 85.5061V83.5061C87.1915 83.5061 76.4075 88.2401 68.0954 97.0587C59.7989 105.861 54.0081 118.682 51.4233 134.817L53.3981 135.134ZM99.6192 85.5061C110.26 85.5061 117.828 89.3848 122.219 96.7614C126.655 104.214 127.966 115.427 125.575 130.314L127.55 130.631C129.972 115.547 128.722 103.776 123.937 95.7385C119.108 87.6248 110.797 83.5061 99.6192 83.5061V85.5061Z" fill="#F6E27B"/>
<path d="M271 287H280" stroke="#F6E27B" stroke-width="2" stroke-linecap="round"/>
<path d="M288 287H297" stroke="#F6E27B" stroke-width="2" stroke-linecap="round"/>
<path d="M305 287H314" stroke="#F6E27B" stroke-width="2" stroke-linecap="round"/>
<path d="M322 287H331" stroke="#F6E27B" stroke-width="2" stroke-linecap="round"/>
<path d="M398 287H407" stroke="#F6E27B" stroke-width="2" stroke-linecap="round"/>
<path d="M415 287H424" stroke="#F6E27B" stroke-width="2" stroke-linecap="round"/>
<path d="M432 287H441" stroke="#F6E27B" stroke-width="2" stroke-linecap="round"/>
<path d="M449 287H458" stroke="#F6E27B" stroke-width="2" stroke-linecap="round"/>
</svg>
