<svg width="244" height="240" viewBox="0 0 244 240" fill="none" xmlns="http://www.w3.org/2000/svg">
<path d="M240.301 57.1674L240.301 57.1679C245.563 78.3282 239.925 101.645 223.383 118.187C205.583 135.987 179.993 140.915 157.617 133.454L157.064 133.27L156.652 133.682L60.1088 230.226C49.1611 241.173 31.41 241.173 20.4623 230.226C9.5146 219.278 9.5146 201.527 20.4623 190.579L117.087 93.954L117.498 93.5438L117.316 92.9928C109.948 70.6202 114.826 44.9803 132.506 27.3003C149.03 10.7803 172.311 5.13375 193.457 10.3736C196.87 11.2226 198.053 15.4484 195.581 17.921L161.91 51.592L161.567 51.9349L161.646 52.4133L166.768 83.1501L166.878 83.8142L167.542 83.9248L198.279 89.0461L198.758 89.1258L199.1 88.7829L232.771 55.1119C235.241 52.6422 239.466 53.8023 240.301 57.1674ZM28.4802 210.398C28.4802 216.918 33.7698 222.208 40.2901 222.208C46.8103 222.208 52.1 216.918 52.1 210.398C52.1 203.873 46.8101 198.588 40.2901 198.588C33.7701 198.588 28.4802 203.873 28.4802 210.398Z" fill="#F6E27B" fill-opacity="0.21" stroke="#F6E27B" stroke-width="1.88488"/>
<path d="M229.907 49.4009C228.892 45.3121 223.775 43.9265 220.796 46.9059L187.125 80.5769L156.388 75.4556L151.267 44.7189L184.938 11.0479C187.936 8.0503 186.491 2.9426 182.375 1.91925C160.921 -3.39675 137.298 2.3313 120.53 19.0943C102.581 37.0437 97.6406 63.0622 105.112 85.748L8.4868 182.373C-2.82893 193.689 -2.82893 212.037 8.4868 223.353C19.8025 234.668 38.1504 234.668 49.4661 223.353L146.01 126.809C168.705 134.375 194.673 129.381 212.74 111.314C229.526 94.528 235.245 70.8687 229.907 49.4009ZM28.981 213.726C22.9813 213.726 18.1135 208.858 18.1135 202.858C18.1135 196.854 22.9813 191.991 28.981 191.991C34.9807 191.991 39.8484 196.854 39.8484 202.858C39.8484 208.858 34.9807 213.726 28.981 213.726Z" fill="#F6E27B"/>
</svg>
