<?xml version="1.0" encoding="utf-8"?>
<!-- Generator: Adobe Illustrator 26.0.1, SVG Export Plug-In . SVG Version: 6.00 Build 0)  -->
<svg version="1.1" id="Layer_1" xmlns="http://www.w3.org/2000/svg" xmlns:xlink="http://www.w3.org/1999/xlink" x="0px" y="0px"
	 viewBox="0 0 570 511.67" style="enable-background:new 0 0 570 511.67;" xml:space="preserve">
<style type="text/css">
	.st0{fill:#3F3D56;}
	.st1{fill:#E6E6E6;}
	.st2{fill:#282E37;}
	.st3{fill:#FFFFFF;}
</style>
<path class="st0" d="M557.34,197.32c-0.2,0-0.39-0.06-0.56-0.17L287.79,9.81c-1.68-1.16-3.9-1.16-5.57,0.01L15.17,197.14
	c-0.44,0.31-1.05,0.2-1.35-0.24c-0.31-0.44-0.2-1.05,0.24-1.35L281.1,8.23c2.34-1.63,5.45-1.64,7.8-0.01l268.99,187.33
	c0.44,0.31,0.55,0.91,0.24,1.35C557.95,197.17,557.66,197.32,557.34,197.32L557.34,197.32z"/>
<polygon class="st1" points="30.43,203.96 285.27,15.09 542.05,217.4 298.4,361.84 166.12,331.69 "/>
<path class="st2" d="M177.29,451.05H51.39c-3.25,0-5.89-2.62-5.89-5.87c0-3.25,2.62-5.89,5.87-5.89c0.01,0,0.01,0,0.02,0h125.9
	c3.25,0,5.89,2.62,5.89,5.87c0,3.25-2.62,5.89-5.87,5.89C177.3,451.05,177.29,451.05,177.29,451.05z"/>
<path class="st2" d="M96.56,425.76H51.39c-3.25,0-5.89-2.62-5.89-5.87c0-3.25,2.62-5.89,5.87-5.89c0.01,0,0.01,0,0.02,0h45.17
	c3.25,0,5.89,2.62,5.89,5.87c0,3.25-2.62,5.89-5.87,5.89C96.57,425.76,96.56,425.76,96.56,425.76z"/>
<path class="st3" d="M288.85,309.16c-0.96,0-1.9-0.18-2.79-0.55L128.89,243.4V39.27c0-3.76,3.05-6.8,6.81-6.81h301.52
	c3.76,0,6.8,3.05,6.81,6.81v204.27l-0.3,0.13l-152,64.91C290.82,308.96,289.84,309.16,288.85,309.16z"/>
<path class="st0" d="M288.85,309.65c-1.02,0-2.03-0.2-2.98-0.58l-157.47-65.34V39.27c0-4.03,3.27-7.29,7.29-7.29h301.52
	c4.03,0,7.29,3.27,7.29,7.29v204.6l-152.6,65.17C290.95,309.44,289.9,309.65,288.85,309.65z M130.35,242.42l156.27,64.84
	c1.46,0.59,3.09,0.58,4.54-0.03l151.41-64.66V39.27c0-2.95-2.4-5.35-5.35-5.35H135.7c-2.95,0-5.35,2.4-5.35,5.35L130.35,242.42z"/>
<path class="st0" d="M555.39,195.38h-0.19l-111.66,47.68l-152.77,65.23c-1.21,0.51-2.56,0.51-3.77,0.02l-157.62-65.39l-114.4-47.46
	l-0.17-0.08h-0.19c-3.76,0-6.8,3.05-6.81,6.81v295.68c0,3.76,3.05,6.8,6.81,6.81h540.79c3.76,0,6.8-3.05,6.81-6.81V202.18
	C562.2,198.43,559.15,195.38,555.39,195.38z M560.26,497.87c0,2.69-2.18,4.86-4.86,4.86H14.61c-2.69,0-4.86-2.18-4.86-4.86V202.18
	c0-2.61,2.07-4.76,4.68-4.86l114.96,47.7l156.87,65.09c1.7,0.69,3.6,0.68,5.29-0.03l152-64.91l112.05-47.84
	c2.61,0.11,4.66,2.25,4.67,4.86V497.87z"/>
<path class="st2" d="M287.28,251.28c-5.8,0.01-11.45-1.87-16.09-5.35l-0.29-0.22l-60.61-46.4c-11.8-9.04-14.04-25.95-5-37.75
	c9.04-11.8,25.95-14.04,37.75-5l39.26,30.1l92.77-120.98c9.05-11.8,25.95-14.03,37.75-4.98c0,0,0,0,0,0l-0.58,0.78l0.59-0.77
	c11.79,9.06,14.01,25.95,4.98,37.75L308.7,240.77C303.59,247.41,295.67,251.3,287.28,251.28z"/>
</svg>
