<svg width="1441" height="1158" viewBox="0 0 1441 1158" fill="none" xmlns="http://www.w3.org/2000/svg">
<path d="M163.5 3.5H1439.5V1156.3L163.5 993.609V3.5Z" fill="#F6E27B" fill-opacity="0.21" stroke="#F6E27B" stroke-width="3"/>
<path d="M0 1H1441V1123L0 943.58V1Z" fill="#151515"/>
<path d="M713.664 153.371C668.309 106.705 576 10.9981 569.597 1.5H993L1142.36 271.603L726.67 692.589L1440.5 1123L596.61 1018.59L455.545 1001.28L359 661.423L713.664 153.371Z" fill="url(#paint0_linear_420_6)" fill-opacity="0.5"/>
<path d="M503.5 143C458.167 95.8333 372.4 9.6 366 0H526L642 151.5L284 656.5L386.5 991.5L238 973.5L149 656.5L503.5 143Z" fill="url(#paint1_linear_420_6)" fill-opacity="0.5"/>
<defs>
<linearGradient id="paint0_linear_420_6" x1="750.681" y1="1.5" x2="750.681" y2="1028.98" gradientUnits="userSpaceOnUse">
<stop stop-color="#F6E27B"/>
<stop offset="0.869792" stop-color="#151515"/>
</linearGradient>
<linearGradient id="paint1_linear_420_6" x1="558" y1="-10.5" x2="540.5" y2="1028" gradientUnits="userSpaceOnUse">
<stop stop-color="#151515" stop-opacity="0"/>
<stop offset="0.526042" stop-color="#F6E27B"/>
<stop offset="1" stop-color="#151515" stop-opacity="0"/>
</linearGradient>
</defs>
</svg>
