<svg width="804" height="318" viewBox="0 0 804 318" fill="none" xmlns="http://www.w3.org/2000/svg">
<path d="M508.432 270.977L508.433 270.981L514.142 287.421V309.399C514.142 310.64 513.124 311.657 511.884 311.657H509.126C507.885 311.657 506.868 310.64 506.868 309.399V306.641V306.141H506.368H473.274H472.774V306.641V309.399C472.774 310.64 471.756 311.657 470.516 311.657H467.758C466.517 311.657 465.5 310.64 465.5 309.399V287.421L471.207 270.984C471.208 270.984 471.208 270.983 471.208 270.983C471.72 269.545 473.055 268.531 474.653 268.531H504.989C506.592 268.531 507.948 269.55 508.432 270.977ZM472.277 281.657L472.047 282.321H472.75H506.864H507.567L507.337 281.657L504.469 273.383L504.352 273.047H503.996H475.618H475.262L475.145 273.383L472.277 281.657ZM472.774 294.231C472.774 296.796 474.845 298.868 477.41 298.868C479.976 298.868 482.047 296.796 482.047 294.231C482.047 291.666 479.976 289.594 477.41 289.594C474.845 289.594 472.774 291.666 472.774 294.231ZM497.594 294.231C497.594 296.796 499.666 298.868 502.231 298.868C504.796 298.868 506.868 296.796 506.868 294.231C506.868 291.666 504.796 289.594 502.231 289.594C499.666 289.594 497.594 291.666 497.594 294.231Z" fill="#F6E27B" fill-opacity="0.21" stroke="#F6E27B"/>
<path d="M353.549 314.381L353.776 314.498C357.118 316.215 360.821 317.111 364.579 317.111C368.336 317.111 372.04 316.215 375.382 314.498L375.611 314.38L375.839 314.498C379.247 316.256 382.919 317.173 386.642 317.173H389.399C390.64 317.173 391.657 316.156 391.657 314.915C391.657 313.675 390.64 312.657 389.399 312.657H386.642C383.261 312.657 379.894 311.663 376.822 309.888M353.549 314.381L377.072 309.455M353.549 314.381L353.321 314.497C349.91 316.23 346.236 317.173 342.516 317.173H339.758C338.517 317.173 337.5 316.156 337.5 314.915C337.5 313.675 338.517 312.657 339.758 312.657H342.516C345.894 312.657 349.261 311.664 352.306 309.889C353.093 309.451 354.006 309.455 354.757 309.887M353.549 314.381L354.757 309.887M376.822 309.888C376.822 309.888 376.822 309.888 376.822 309.888L377.072 309.455M376.822 309.888C376.822 309.888 376.822 309.888 376.822 309.888L377.072 309.455M376.822 309.888C376.07 309.455 375.157 309.451 374.37 309.888M377.072 309.455C376.162 308.931 375.059 308.931 374.121 309.455M374.37 309.888C374.371 309.887 374.373 309.886 374.375 309.885L374.121 309.455M374.37 309.888C371.398 311.638 368.013 312.561 364.565 312.561C361.116 312.561 357.729 311.638 354.757 309.887M374.37 309.888C374.368 309.889 374.366 309.89 374.365 309.891L374.121 309.455M374.121 309.455L354.757 309.887M391.54 288.077L391.54 288.077L391.539 288.082L386.403 306.139C383.143 306.072 380.17 304.639 377.785 302.595C376.522 301.495 374.699 301.495 373.435 302.595C370.992 304.689 367.932 306.142 364.579 306.142C361.225 306.142 358.165 304.689 355.722 302.596C354.459 301.495 352.636 301.495 351.373 302.595C348.987 304.639 346.015 306.072 342.755 306.139L337.619 288.082L337.615 288.07L337.611 288.058C337.268 287.052 337.693 285.593 339.102 285.168L339.102 285.168L339.113 285.164L342.671 284.006L343.016 283.894V283.531V270.789C343.016 268.032 345.274 265.774 348.031 265.774H356.305H356.805V265.274V259.758C356.805 258.517 357.822 257.5 359.063 257.5H370.094C371.335 257.5 372.352 258.517 372.352 259.758V265.274V265.774H372.852H381.126C383.883 265.774 386.142 268.032 386.142 270.789V283.531V283.894L386.487 284.006L390.044 285.164L390.049 285.166C390.856 285.42 391.276 285.927 391.478 286.473C391.688 287.04 391.664 287.659 391.54 288.077ZM348.031 270.289H347.531V270.789V281.738V282.429L348.188 282.213L362.995 277.332C364.026 277.006 365.104 277.006 366.135 277.332C366.136 277.333 366.137 277.333 366.137 277.333L380.97 282.213L381.626 282.429V281.738V270.789V270.289H381.126H348.031Z" fill="#F6E27B" fill-opacity="0.21" stroke="#F6E27B"/>
<path d="M236.457 310.914L226.047 313.517V310.304L232.699 306.313L232.942 306.167V305.884V290.715V290.047L232.301 290.236L209.5 296.942V292.38L232.695 278.736L232.942 278.591V278.305V263.137C232.942 261.124 234.566 259.5 236.579 259.5C238.592 259.5 240.215 261.124 240.215 263.137V278.305V278.591L240.462 278.736L263.657 292.38V296.942L240.857 290.236L240.215 290.047V290.715V305.884V306.167L240.458 306.313L247.11 310.304V313.517L236.7 310.914L236.579 310.884L236.457 310.914Z" fill="#F6E27B" fill-opacity="0.21" stroke="#F6E27B"/>
<path d="M164.997 134.976L165.983 135.141L165.983 135.138L164.997 134.976ZM13.9762 130.472L14.9627 130.636L14.9631 130.633L13.9762 130.472ZM126.562 130.472L127.548 130.637L127.55 130.631L126.562 130.472ZM52.4107 134.976L53.3954 135.15L53.3968 135.142L53.3981 135.134L52.4107 134.976ZM165.983 135.138C170.442 108.113 165.379 86.7572 153.535 72.1423C141.688 57.5244 123.185 49.8079 101.094 49.8079V51.8079C122.718 51.8079 140.592 59.3488 151.981 73.4015C163.372 87.4571 168.403 108.186 164.01 134.813L165.983 135.138ZM101.094 49.8079C58.6549 49.8079 21.4505 78.447 12.9892 130.311L14.9631 130.633C23.2733 79.6948 59.6768 51.8079 101.094 51.8079V49.8079ZM12.9896 130.309C8.53065 157.219 13.5938 178.46 25.4799 192.989C37.3673 207.519 55.9479 215.174 78.189 215.174V213.174C56.4052 213.174 38.4535 205.688 27.0279 191.722C15.6009 177.755 10.5701 157.145 14.9627 130.636L12.9896 130.309ZM78.189 215.174C120.238 215.174 157.287 187.004 165.983 135.141L164.01 134.81C155.469 185.75 119.221 213.174 78.189 213.174V215.174ZM125.576 130.307C122.92 146.165 117.239 158.462 109.337 166.782C101.452 175.084 91.3101 179.476 79.5867 179.476V181.476C91.8557 181.476 102.523 176.861 110.788 168.159C119.036 159.474 124.847 146.77 127.548 130.637L125.576 130.307ZM79.5867 179.476C69.0425 179.476 61.2789 175.776 56.742 168.55C52.1663 161.262 50.7362 150.181 53.3954 135.15L51.426 134.801C48.7278 150.052 50.0929 161.721 55.0482 169.613C60.0422 177.567 68.5454 181.476 79.5867 181.476V179.476ZM53.3981 135.134C55.938 119.279 61.5999 106.866 69.5507 98.4305C77.486 90.0118 87.7439 85.5061 99.6192 85.5061V83.5061C87.1915 83.5061 76.4075 88.2401 68.0954 97.0587C59.7989 105.861 54.0081 118.682 51.4233 134.817L53.3981 135.134ZM99.6192 85.5061C110.26 85.5061 117.828 89.3848 122.219 96.7614C126.655 104.214 127.966 115.427 125.575 130.314L127.55 130.631C129.972 115.547 128.722 103.776 123.937 95.7385C119.108 87.6248 110.797 83.5061 99.6192 83.5061V85.5061Z" fill="#F6E27B"/>
<path d="M158.701 88.5135C156.918 88.5135 155.368 88.1982 154.053 87.5676C152.738 86.9371 151.648 86.1173 150.783 85.1084C149.937 84.0815 149.306 82.9825 148.892 81.8115C148.477 80.6224 148.27 79.4784 148.27 78.3794V77.7849C148.27 76.5778 148.486 75.3797 148.919 74.1907C149.351 73.0016 150 71.9206 150.864 70.9478C151.747 69.9569 152.837 69.1732 154.134 68.5967C155.432 68.0021 156.954 67.7049 158.701 67.7049C160.413 67.7049 161.917 68.0021 163.214 68.5967C164.53 69.1732 165.62 69.9569 166.484 70.9478C167.349 71.9206 167.998 73.0016 168.43 74.1907C168.881 75.3797 169.106 76.5778 169.106 77.7849V78.3794C169.106 79.4784 168.89 80.6224 168.457 81.8115C168.043 82.9825 167.403 84.0815 166.538 85.1084C165.692 86.1173 164.611 86.9371 163.296 87.5676C161.998 88.1982 160.467 88.5135 158.701 88.5135ZM158.701 84.9463C160.035 84.9463 161.188 84.64 162.161 84.0275C163.133 83.3969 163.881 82.5591 164.404 81.5142C164.944 80.4693 165.214 79.3343 165.214 78.1092C165.214 76.812 164.944 75.65 164.404 74.6231C163.881 73.5781 163.133 72.7584 162.161 72.1639C161.188 71.5693 160.035 71.2721 158.701 71.2721C157.35 71.2721 156.188 71.5693 155.215 72.1639C154.242 72.7584 153.486 73.5781 152.945 74.6231C152.423 75.65 152.162 76.812 152.162 78.1092C152.162 79.3343 152.423 80.4693 152.945 81.5142C153.468 82.5591 154.215 83.3969 155.188 84.0275C156.179 84.64 157.35 84.9463 158.701 84.9463ZM177.057 88.4594C175.364 88.4594 174.048 87.9099 173.112 86.8109C172.193 85.6939 171.733 84.0275 171.733 81.8115V73.2989H175.49V82.1358C175.49 83.0546 175.742 83.7752 176.246 84.2977C176.751 84.8202 177.435 85.0814 178.3 85.0814C179.165 85.0814 179.868 84.8021 180.408 84.2436C180.967 83.6851 181.246 82.9285 181.246 81.9736V73.2989H185.002V88H182.03V84.595C181.399 87.1713 179.796 88.4594 177.219 88.4594H177.057ZM188.858 88V73.3259H191.83V78.1092C192.227 74.7942 193.974 73.1367 197.073 73.1367H197.614V76.4066H196.587C195.308 76.4066 194.326 76.749 193.641 77.4336C192.956 78.1182 192.614 79.091 192.614 80.3522V88H188.858ZM205.04 88V73.3259H208.013V76.9201C208.625 74.2177 210.22 72.8665 212.796 72.8665H212.958C215.282 72.8665 216.814 73.9745 217.552 76.1905C218.273 73.9745 219.804 72.8665 222.146 72.8665H222.309C223.984 72.8665 225.254 73.443 226.119 74.596C227.002 75.7491 227.443 77.4246 227.443 79.6225V88H223.687V79.2712C223.687 78.3524 223.453 77.6227 222.984 77.0823C222.516 76.5238 221.849 76.2445 220.984 76.2445C220.102 76.2445 219.399 76.5328 218.877 77.1093C218.372 77.6678 218.12 78.4245 218.12 79.3793V88H214.364V79.2712C214.364 78.3524 214.129 77.6227 213.661 77.0823C213.192 76.5238 212.526 76.2445 211.661 76.2445C210.778 76.2445 210.076 76.5328 209.553 77.1093C209.049 77.6678 208.797 78.4245 208.797 79.3793V88H205.04ZM238.051 88.5135C236.322 88.5135 234.862 88.1621 233.673 87.4595C232.484 86.7389 231.574 85.802 230.944 84.649C230.331 83.496 230.025 82.2709 230.025 80.9737V80.4062C230.025 79.055 230.34 77.8029 230.971 76.6499C231.62 75.4968 232.538 74.569 233.727 73.8664C234.934 73.1638 236.376 72.8124 238.051 72.8124C239.709 72.8124 241.132 73.1638 242.321 73.8664C243.528 74.569 244.447 75.4968 245.078 76.6499C245.726 77.8029 246.05 79.055 246.05 80.4062V80.9737C246.05 82.2709 245.735 83.496 245.105 84.649C244.492 85.802 243.591 86.7389 242.402 87.4595C241.213 88.1621 239.763 88.5135 238.051 88.5135ZM238.051 85.2976C239.42 85.2976 240.465 84.8652 241.186 84.0004C241.925 83.1176 242.294 82.0097 242.294 80.6765C242.294 79.3433 241.916 78.2353 241.159 77.3525C240.402 76.4697 239.366 76.0283 238.051 76.0283C236.718 76.0283 235.673 76.4697 234.916 77.3525C234.16 78.2353 233.781 79.3433 233.781 80.6765C233.781 82.0097 234.142 83.1176 234.862 84.0004C235.601 84.8652 236.664 85.2976 238.051 85.2976ZM255.258 88.1892C253.907 88.1892 252.79 88.018 251.907 87.6757C251.024 87.3154 250.366 86.7209 249.934 85.8921C249.52 85.0634 249.313 83.9284 249.313 82.4871V76.0824H246.988V73.3259H249.313L249.34 69.1912H252.853L252.826 73.3259H257.366V76.0824H252.826V82.7303C252.826 83.4509 253.015 84.0094 253.393 84.4058C253.789 84.7841 254.348 84.9733 255.069 84.9733H257.366V88.1892H255.258ZM267.033 88.5135C265.304 88.5135 263.844 88.1621 262.655 87.4595C261.466 86.7389 260.556 85.802 259.926 84.649C259.313 83.496 259.007 82.2709 259.007 80.9737V80.4062C259.007 79.055 259.322 77.8029 259.953 76.6499C260.601 75.4968 261.52 74.569 262.709 73.8664C263.916 73.1638 265.358 72.8124 267.033 72.8124C268.691 72.8124 270.114 73.1638 271.303 73.8664C272.51 74.569 273.429 75.4968 274.059 76.6499C274.708 77.8029 275.032 79.055 275.032 80.4062V80.9737C275.032 82.2709 274.717 83.496 274.086 84.649C273.474 85.802 272.573 86.7389 271.384 87.4595C270.195 88.1621 268.745 88.5135 267.033 88.5135ZM267.033 85.2976C268.402 85.2976 269.447 84.8652 270.168 84.0004C270.907 83.1176 271.276 82.0097 271.276 80.6765C271.276 79.3433 270.898 78.2353 270.141 77.3525C269.384 76.4697 268.348 76.0283 267.033 76.0283C265.7 76.0283 264.655 76.4697 263.898 77.3525C263.142 78.2353 262.763 79.3433 262.763 80.6765C262.763 82.0097 263.124 83.1176 263.844 84.0004C264.583 84.8652 265.646 85.2976 267.033 85.2976ZM277.862 88V73.3259H280.835V78.1092C281.231 74.7942 282.979 73.1367 286.077 73.1367H286.618V76.4066H285.591C284.312 76.4066 283.33 76.749 282.645 77.4336C281.961 78.1182 281.618 79.091 281.618 80.3522V88H277.862ZM293.995 88.4594C291.977 88.4594 290.392 88.036 289.239 87.1893C288.104 86.3245 287.509 85.1354 287.455 83.6221H290.833C290.869 84.1446 291.14 84.613 291.644 85.0273C292.167 85.4237 292.968 85.6219 294.049 85.6219C294.932 85.6219 295.644 85.4597 296.184 85.1354C296.725 84.8112 296.995 84.3698 296.995 83.8113C296.995 83.3248 296.788 82.9465 296.373 82.6762C295.977 82.388 295.292 82.1898 294.319 82.0817L293.022 81.9466C291.365 81.7664 290.095 81.298 289.212 80.5413C288.347 79.7847 287.915 78.7758 287.915 77.5146C287.915 76.5238 288.167 75.686 288.671 75.0014C289.176 74.2988 289.87 73.7763 290.752 73.434C291.653 73.0737 292.68 72.8935 293.833 72.8935C295.635 72.8935 297.094 73.2989 298.211 74.1096C299.328 74.9023 299.913 76.0553 299.968 77.5687H296.59C296.535 77.0642 296.274 76.6319 295.806 76.2715C295.355 75.9112 294.689 75.731 293.806 75.731C293.013 75.731 292.401 75.8842 291.968 76.1905C291.536 76.4967 291.32 76.8931 291.32 77.3795C291.32 77.8479 291.491 78.2083 291.833 78.4605C292.176 78.7127 292.752 78.8839 293.563 78.9739L294.86 79.1091C296.572 79.2892 297.923 79.7666 298.914 80.5413C299.904 81.316 300.4 82.361 300.4 83.6761C300.4 84.649 300.13 85.4958 299.589 86.2164C299.067 86.919 298.328 87.4685 297.373 87.8649C296.418 88.2612 295.292 88.4594 293.995 88.4594ZM312.578 88.3783C310.957 88.3783 309.66 87.964 308.687 87.1352C307.732 86.3065 307.255 85.1445 307.255 83.6491C307.255 82.0457 307.831 80.8656 308.984 80.109C310.155 79.3343 311.723 78.9469 313.686 78.9469H316.686V78.8118C316.686 77.1363 315.839 76.2986 314.146 76.2986C313.695 76.2986 313.155 76.3076 312.524 76.3256C311.894 76.3436 311.254 76.3706 310.606 76.4066C309.975 76.4247 309.407 76.4517 308.903 76.4877V73.2989C309.516 73.2448 310.245 73.1998 311.092 73.1638C311.957 73.1277 312.749 73.1097 313.47 73.1097C315.722 73.1097 317.416 73.5691 318.551 74.4879C319.704 75.3887 320.28 76.8571 320.28 78.8929V88H317.308V85.1895C316.641 87.3154 315.065 88.3783 312.578 88.3783ZM313.632 85.7029C314.137 85.7029 314.614 85.6129 315.065 85.4327C315.515 85.2345 315.884 84.9102 316.173 84.4598C316.479 83.9914 316.65 83.3609 316.686 82.5682V81.1899H313.632C312.767 81.1899 312.101 81.4061 311.632 81.8385C311.182 82.2529 310.957 82.7934 310.957 83.4599C310.957 84.1446 311.182 84.694 311.632 85.1084C312.101 85.5048 312.767 85.7029 313.632 85.7029ZM323.844 88V73.3259H326.817V78.1092C327.213 74.7942 328.961 73.1367 332.06 73.1367H332.6V76.4066H331.573C330.294 76.4066 329.312 76.749 328.628 77.4336C327.943 78.1182 327.601 79.091 327.601 80.3522V88H323.844ZM341.115 88.5135C339.854 88.5135 338.746 88.2973 337.791 87.8649C336.854 87.4325 336.071 86.856 335.44 86.1353C334.828 85.3967 334.359 84.5769 334.035 83.6761C333.729 82.7753 333.575 81.8565 333.575 80.9197V80.4062C333.575 79.4334 333.729 78.4965 334.035 77.5957C334.359 76.6949 334.828 75.8842 335.44 75.1635C336.071 74.4429 336.845 73.8754 337.764 73.461C338.683 73.0286 339.746 72.8124 340.953 72.8124C342.538 72.8124 343.863 73.1638 344.926 73.8664C345.988 74.551 346.79 75.4608 347.331 76.5958C347.889 77.7128 348.168 78.9199 348.168 80.2171V81.5683H337.143C337.269 82.7213 337.647 83.6491 338.278 84.3517C338.926 85.0544 339.872 85.4057 341.115 85.4057C342.016 85.4057 342.755 85.2255 343.331 84.8652C343.926 84.4869 344.304 84.0275 344.466 83.487H347.925C347.601 85.0003 346.835 86.2164 345.628 87.1352C344.421 88.054 342.917 88.5135 341.115 88.5135ZM340.953 75.9202C339.89 75.9202 339.043 76.2175 338.413 76.812C337.782 77.4065 337.377 78.2263 337.197 79.2712H344.574C344.43 78.2263 344.052 77.4065 343.439 76.812C342.845 76.2175 342.016 75.9202 340.953 75.9202ZM361.219 88.4594C359.526 88.4594 358.211 87.9099 357.274 86.8109C356.355 85.6939 355.896 84.0275 355.896 81.8115V73.2989H359.652V82.1358C359.652 83.0546 359.904 83.7752 360.409 84.2977C360.913 84.8202 361.598 85.0814 362.463 85.0814C363.327 85.0814 364.03 84.8021 364.57 84.2436C365.129 83.6851 365.408 82.9285 365.408 81.9736V73.2989H369.165V88H366.192V84.595C365.561 87.1713 363.958 88.4594 361.382 88.4594H361.219ZM378.344 88.4594C376.326 88.4594 374.741 88.036 373.588 87.1893C372.453 86.3245 371.858 85.1354 371.804 83.6221H375.182C375.218 84.1446 375.488 84.613 375.993 85.0273C376.515 85.4237 377.317 85.6219 378.398 85.6219C379.281 85.6219 379.992 85.4597 380.533 85.1354C381.073 84.8112 381.344 84.3698 381.344 83.8113C381.344 83.3248 381.136 82.9465 380.722 82.6762C380.326 82.388 379.641 82.1898 378.668 82.0817L377.371 81.9466C375.713 81.7664 374.443 81.298 373.561 80.5413C372.696 79.7847 372.263 78.7758 372.263 77.5146C372.263 76.5238 372.516 75.686 373.02 75.0014C373.525 74.2988 374.218 73.7763 375.101 73.434C376.002 73.0737 377.029 72.8935 378.182 72.8935C379.983 72.8935 381.443 73.2989 382.56 74.1096C383.677 74.9023 384.262 76.0553 384.316 77.5687H380.938C380.884 77.0642 380.623 76.6319 380.154 76.2715C379.704 75.9112 379.037 75.731 378.155 75.731C377.362 75.731 376.749 75.8842 376.317 76.1905C375.885 76.4967 375.668 76.8931 375.668 77.3795C375.668 77.8479 375.84 78.2083 376.182 78.4605C376.524 78.7127 377.101 78.8839 377.911 78.9739L379.209 79.1091C380.92 79.2892 382.271 79.7666 383.262 80.5413C384.253 81.316 384.749 82.361 384.749 83.6761C384.749 84.649 384.478 85.4958 383.938 86.2164C383.415 86.919 382.677 87.4685 381.722 87.8649C380.767 88.2612 379.641 88.4594 378.344 88.4594ZM393.959 88.5135C392.698 88.5135 391.59 88.2973 390.635 87.8649C389.698 87.4325 388.915 86.856 388.284 86.1353C387.672 85.3967 387.203 84.5769 386.879 83.6761C386.573 82.7753 386.419 81.8565 386.419 80.9197V80.4062C386.419 79.4334 386.573 78.4965 386.879 77.5957C387.203 76.6949 387.672 75.8842 388.284 75.1635C388.915 74.4429 389.689 73.8754 390.608 73.461C391.527 73.0286 392.59 72.8124 393.797 72.8124C395.382 72.8124 396.707 73.1638 397.77 73.8664C398.832 74.551 399.634 75.4608 400.175 76.5958C400.733 77.7128 401.012 78.9199 401.012 80.2171V81.5683H389.987C390.113 82.7213 390.491 83.6491 391.122 84.3517C391.77 85.0544 392.716 85.4057 393.959 85.4057C394.86 85.4057 395.599 85.2255 396.175 84.8652C396.77 84.4869 397.148 84.0275 397.31 83.487H400.769C400.445 85.0003 399.679 86.2164 398.472 87.1352C397.265 88.054 395.761 88.5135 393.959 88.5135ZM393.797 75.9202C392.734 75.9202 391.887 76.2175 391.257 76.812C390.626 77.4065 390.221 78.2263 390.041 79.2712H397.418C397.274 78.2263 396.896 77.4065 396.283 76.812C395.689 76.2175 394.86 75.9202 393.797 75.9202ZM409.771 88.4864C408.402 88.4864 407.186 88.1621 406.123 87.5136C405.06 86.847 404.222 85.9462 403.61 84.8112C403.015 83.6761 402.718 82.397 402.718 80.9737V80.4062C402.718 79.001 403.006 77.7308 403.583 76.5958C404.159 75.4608 404.961 74.56 405.988 73.8934C407.033 73.2088 408.258 72.8665 409.663 72.8665C410.708 72.8665 411.645 73.0827 412.474 73.5151C413.321 73.9294 414.014 74.56 414.555 75.4068V68.2724H418.311V88H415.338V84.9192C414.834 86.1083 414.086 87.0001 413.095 87.5946C412.123 88.1892 411.015 88.4864 409.771 88.4864ZM410.609 85.3246C411.348 85.3246 412.023 85.1625 412.636 84.8382C413.249 84.4959 413.735 84.0094 414.095 83.3789C414.474 82.7483 414.663 81.9916 414.663 81.1088V80.0279C414.663 79.1811 414.465 78.4605 414.068 77.866C413.69 77.2714 413.194 76.821 412.582 76.5147C411.969 76.1905 411.312 76.0283 410.609 76.0283C409.384 76.0283 408.384 76.4607 407.609 77.3255C406.853 78.1722 406.474 79.2982 406.474 80.7035C406.474 82.1087 406.862 83.2347 407.637 84.0815C408.411 84.9102 409.402 85.3246 410.609 85.3246ZM429.581 71.5693C428.842 71.5693 428.293 71.3802 427.933 71.0018C427.59 70.6055 427.419 70.11 427.419 69.5155C427.419 68.921 427.59 68.4345 427.933 68.0562C428.293 67.6779 428.842 67.4887 429.581 67.4887C430.302 67.4887 430.833 67.6779 431.176 68.0562C431.536 68.4345 431.716 68.921 431.716 69.5155C431.716 70.11 431.536 70.6055 431.176 71.0018C430.833 71.3802 430.302 71.5693 429.581 71.5693ZM428.203 88V76.1364H426.149V73.3259H431.959V88H428.203ZM435.829 88V73.3259H438.802V76.9471C439.432 74.2267 441.108 72.8665 443.828 72.8665H443.99C445.738 72.8665 447.062 73.434 447.963 74.569C448.864 75.704 449.314 77.3795 449.314 79.5955V88H445.558V79.2712C445.558 78.3704 445.296 77.6408 444.774 77.0823C444.252 76.5238 443.549 76.2445 442.666 76.2445C441.747 76.2445 441 76.5328 440.423 77.1093C439.865 77.6858 439.585 78.4425 439.585 79.3793V88H435.829ZM462.428 88.3783C460.806 88.3783 459.509 87.964 458.536 87.1352C457.581 86.3065 457.104 85.1445 457.104 83.6491C457.104 82.0457 457.68 80.8656 458.834 80.109C460.005 79.3343 461.572 78.9469 463.536 78.9469H466.535V78.8118C466.535 77.1363 465.689 76.2986 463.995 76.2986C463.545 76.2986 463.004 76.3076 462.374 76.3256C461.743 76.3436 461.104 76.3706 460.455 76.4066C459.824 76.4247 459.257 76.4517 458.752 76.4877V73.2989C459.365 73.2448 460.095 73.1998 460.941 73.1638C461.806 73.1277 462.599 73.1097 463.32 73.1097C465.572 73.1097 467.265 73.5691 468.4 74.4879C469.553 75.3887 470.13 76.8571 470.13 78.8929V88H467.157V85.1895C466.49 87.3154 464.914 88.3783 462.428 88.3783ZM463.482 85.7029C463.986 85.7029 464.464 85.6129 464.914 85.4327C465.364 85.2345 465.734 84.9102 466.022 84.4598C466.328 83.9914 466.499 83.3609 466.535 82.5682V81.1899H463.482C462.617 81.1899 461.95 81.4061 461.482 81.8385C461.031 82.2529 460.806 82.7934 460.806 83.4599C460.806 84.1446 461.031 84.694 461.482 85.1084C461.95 85.5048 462.617 85.7029 463.482 85.7029ZM478.693 88.4594C477 88.4594 475.685 87.9099 474.748 86.8109C473.829 85.6939 473.37 84.0275 473.37 81.8115V73.2989H477.126V82.1358C477.126 83.0546 477.378 83.7752 477.883 84.2977C478.387 84.8202 479.072 85.0814 479.936 85.0814C480.801 85.0814 481.504 84.8021 482.044 84.2436C482.603 83.6851 482.882 82.9285 482.882 81.9736V73.2989H486.638V88H483.666V84.595C483.035 87.1713 481.432 88.4594 478.855 88.4594H478.693ZM496.872 88.1892C495.52 88.1892 494.403 88.018 493.521 87.6757C492.638 87.3154 491.98 86.7209 491.548 85.8921C491.134 85.0634 490.926 83.9284 490.926 82.4871V76.0824H488.602V73.3259H490.926L490.953 69.1912H494.466L494.439 73.3259H498.98V76.0824H494.439V82.7303C494.439 83.4509 494.629 84.0094 495.007 84.4058C495.403 84.7841 495.962 84.9733 496.682 84.9733H498.98V88.1892H496.872ZM508.647 88.5135C506.917 88.5135 505.458 88.1621 504.269 87.4595C503.08 86.7389 502.17 85.802 501.54 84.649C500.927 83.496 500.621 82.2709 500.621 80.9737V80.4062C500.621 79.055 500.936 77.8029 501.567 76.6499C502.215 75.4968 503.134 74.569 504.323 73.8664C505.53 73.1638 506.972 72.8124 508.647 72.8124C510.304 72.8124 511.728 73.1638 512.917 73.8664C514.124 74.569 515.043 75.4968 515.673 76.6499C516.322 77.8029 516.646 79.055 516.646 80.4062V80.9737C516.646 82.2709 516.331 83.496 515.7 84.649C515.088 85.802 514.187 86.7389 512.998 87.4595C511.809 88.1621 510.359 88.5135 508.647 88.5135ZM508.647 85.2976C510.016 85.2976 511.061 84.8652 511.782 84.0004C512.52 83.1176 512.89 82.0097 512.89 80.6765C512.89 79.3433 512.511 78.2353 511.755 77.3525C510.998 76.4697 509.962 76.0283 508.647 76.0283C507.314 76.0283 506.269 76.4697 505.512 77.3525C504.756 78.2353 504.377 79.3433 504.377 80.6765C504.377 82.0097 504.738 83.1176 505.458 84.0004C506.197 84.8652 507.26 85.2976 508.647 85.2976ZM519.476 88V73.3259H522.449V76.9201C523.061 74.2177 524.655 72.8665 527.232 72.8665H527.394C529.718 72.8665 531.249 73.9745 531.988 76.1905C532.709 73.9745 534.24 72.8665 536.582 72.8665H536.744C538.42 72.8665 539.69 73.443 540.555 74.596C541.437 75.7491 541.879 77.4246 541.879 79.6225V88H538.122V79.2712C538.122 78.3524 537.888 77.6227 537.42 77.0823C536.951 76.5238 536.285 76.2445 535.42 76.2445C534.537 76.2445 533.835 76.5328 533.312 77.1093C532.808 77.6678 532.556 78.4245 532.556 79.3793V88H528.799V79.2712C528.799 78.3524 528.565 77.6227 528.097 77.0823C527.628 76.5238 526.962 76.2445 526.097 76.2445C525.214 76.2445 524.511 76.5328 523.989 77.1093C523.484 77.6678 523.232 78.4245 523.232 79.3793V88H519.476ZM552.487 88.5135C550.757 88.5135 549.298 88.1621 548.109 87.4595C546.92 86.7389 546.01 85.802 545.38 84.649C544.767 83.496 544.461 82.2709 544.461 80.9737V80.4062C544.461 79.055 544.776 77.8029 545.407 76.6499C546.055 75.4968 546.974 74.569 548.163 73.8664C549.37 73.1638 550.811 72.8124 552.487 72.8124C554.144 72.8124 555.568 73.1638 556.757 73.8664C557.964 74.569 558.883 75.4968 559.513 76.6499C560.162 77.8029 560.486 79.055 560.486 80.4062V80.9737C560.486 82.2709 560.171 83.496 559.54 84.649C558.928 85.802 558.027 86.7389 556.838 87.4595C555.649 88.1621 554.198 88.5135 552.487 88.5135ZM552.487 85.2976C553.856 85.2976 554.901 84.8652 555.622 84.0004C556.36 83.1176 556.73 82.0097 556.73 80.6765C556.73 79.3433 556.351 78.2353 555.595 77.3525C554.838 76.4697 553.802 76.0283 552.487 76.0283C551.154 76.0283 550.109 76.4697 549.352 77.3525C548.595 78.2353 548.217 79.3433 548.217 80.6765C548.217 82.0097 548.577 83.1176 549.298 84.0004C550.037 84.8652 551.1 85.2976 552.487 85.2976ZM569.693 88.1892C568.342 88.1892 567.225 88.018 566.342 87.6757C565.46 87.3154 564.802 86.7209 564.37 85.8921C563.955 85.0634 563.748 83.9284 563.748 82.4871V76.0824H561.424V73.3259H563.748L563.775 69.1912H567.288L567.261 73.3259H571.801V76.0824H567.261V82.7303C567.261 83.4509 567.45 84.0094 567.829 84.4058C568.225 84.7841 568.784 84.9733 569.504 84.9733H571.801V88.1892H569.693ZM576.576 71.5693C575.837 71.5693 575.287 71.3802 574.927 71.0018C574.585 70.6055 574.414 70.11 574.414 69.5155C574.414 68.921 574.585 68.4345 574.927 68.0562C575.287 67.6779 575.837 67.4887 576.576 67.4887C577.296 67.4887 577.828 67.6779 578.17 68.0562C578.53 68.4345 578.71 68.921 578.71 69.5155C578.71 70.11 578.53 70.6055 578.17 71.0018C577.828 71.3802 577.296 71.5693 576.576 71.5693ZM575.197 88V76.1364H573.143V73.3259H578.954V88H575.197ZM585.769 88L581.175 73.3259H585.039L588.498 84.9192H589.147L592.147 73.3259H595.768L591.795 88H585.769ZM604.396 88.5135C603.135 88.5135 602.027 88.2973 601.072 87.8649C600.135 87.4325 599.351 86.856 598.721 86.1353C598.108 85.3967 597.64 84.5769 597.315 83.6761C597.009 82.7753 596.856 81.8565 596.856 80.9197V80.4062C596.856 79.4334 597.009 78.4965 597.315 77.5957C597.64 76.6949 598.108 75.8842 598.721 75.1635C599.351 74.4429 600.126 73.8754 601.045 73.461C601.964 73.0286 603.027 72.8124 604.234 72.8124C605.819 72.8124 607.143 73.1638 608.206 73.8664C609.269 74.551 610.071 75.4608 610.611 76.5958C611.17 77.7128 611.449 78.9199 611.449 80.2171V81.5683H600.423C600.549 82.7213 600.928 83.6491 601.558 84.3517C602.207 85.0544 603.153 85.4057 604.396 85.4057C605.297 85.4057 606.035 85.2255 606.612 84.8652C607.206 84.4869 607.585 84.0275 607.747 83.487H611.206C610.882 85.0003 610.116 86.2164 608.909 87.1352C607.702 88.054 606.197 88.5135 604.396 88.5135ZM604.234 75.9202C603.171 75.9202 602.324 76.2175 601.693 76.812C601.063 77.4065 600.657 78.2263 600.477 79.2712H607.855C607.711 78.2263 607.332 77.4065 606.72 76.812C606.125 76.2175 605.297 75.9202 604.234 75.9202ZM615.025 92.486L612.107 91.378L614.863 83.541L617.998 84.7031L615.025 92.486ZM626.061 88V73.3259H629.034V76.9201C629.646 74.2177 631.241 72.8665 633.817 72.8665H633.979C636.303 72.8665 637.835 73.9745 638.573 76.1905C639.294 73.9745 640.825 72.8665 643.167 72.8665H643.33C645.005 72.8665 646.275 73.443 647.14 74.596C648.023 75.7491 648.464 77.4246 648.464 79.6225V88H644.708V79.2712C644.708 78.3524 644.474 77.6227 644.005 77.0823C643.537 76.5238 642.87 76.2445 642.005 76.2445C641.123 76.2445 640.42 76.5328 639.897 77.1093C639.393 77.6678 639.141 78.4245 639.141 79.3793V88H635.384V79.2712C635.384 78.3524 635.15 77.6227 634.682 77.0823C634.213 76.5238 633.547 76.2445 632.682 76.2445C631.799 76.2445 631.097 76.5328 630.574 77.1093C630.07 77.6678 629.817 78.4245 629.817 79.3793V88H626.061ZM656.181 88.3783C654.559 88.3783 653.262 87.964 652.289 87.1352C651.334 86.3065 650.857 85.1445 650.857 83.6491C650.857 82.0457 651.433 80.8656 652.586 80.109C653.757 79.3343 655.325 78.9469 657.289 78.9469H660.288V78.8118C660.288 77.1363 659.441 76.2986 657.748 76.2986C657.298 76.2986 656.757 76.3076 656.127 76.3256C655.496 76.3436 654.856 76.3706 654.208 76.4066C653.577 76.4247 653.01 76.4517 652.505 76.4877V73.2989C653.118 73.2448 653.847 73.1998 654.694 73.1638C655.559 73.1277 656.352 73.1097 657.072 73.1097C659.324 73.1097 661.018 73.5691 662.153 74.4879C663.306 75.3887 663.882 76.8571 663.882 78.8929V88H660.91V85.1895C660.243 87.3154 658.667 88.3783 656.181 88.3783ZM657.235 85.7029C657.739 85.7029 658.216 85.6129 658.667 85.4327C659.117 85.2345 659.487 84.9102 659.775 84.4598C660.081 83.9914 660.252 83.3609 660.288 82.5682V81.1899H657.235C656.37 81.1899 655.703 81.4061 655.235 81.8385C654.784 82.2529 654.559 82.7934 654.559 83.4599C654.559 84.1446 654.784 84.694 655.235 85.1084C655.703 85.5048 656.37 85.7029 657.235 85.7029ZM667.447 88V73.3259H670.419V78.1092C670.816 74.7942 672.563 73.1367 675.662 73.1367H676.202V76.4066H675.176C673.896 76.4066 672.915 76.749 672.23 77.4336C671.545 78.1182 671.203 79.091 671.203 80.3522V88H667.447ZM680.337 71.5693C679.598 71.5693 679.049 71.3802 678.689 71.0018C678.346 70.6055 678.175 70.11 678.175 69.5155C678.175 68.921 678.346 68.4345 678.689 68.0562C679.049 67.6779 679.598 67.4887 680.337 67.4887C681.058 67.4887 681.589 67.6779 681.931 68.0562C682.292 68.4345 682.472 68.921 682.472 69.5155C682.472 70.11 682.292 70.6055 681.931 71.0018C681.589 71.3802 681.058 71.5693 680.337 71.5693ZM678.959 88V76.1364H676.905V73.3259H682.715V88H678.959ZM686.585 88V73.3259H689.557V76.9471C690.188 74.2267 691.864 72.8665 694.584 72.8665H694.746C696.494 72.8665 697.818 73.434 698.719 74.569C699.619 75.704 700.07 77.3795 700.07 79.5955V88H696.313V79.2712C696.313 78.3704 696.052 77.6408 695.53 77.0823C695.007 76.5238 694.305 76.2445 693.422 76.2445C692.503 76.2445 691.755 76.5328 691.179 77.1093C690.62 77.6858 690.341 78.4425 690.341 79.3793V88H686.585ZM710.216 88.5135C708.955 88.5135 707.847 88.2973 706.892 87.8649C705.955 87.4325 705.171 86.856 704.541 86.1353C703.928 85.3967 703.46 84.5769 703.135 83.6761C702.829 82.7753 702.676 81.8565 702.676 80.9197V80.4062C702.676 79.4334 702.829 78.4965 703.135 77.5957C703.46 76.6949 703.928 75.8842 704.541 75.1635C705.171 74.4429 705.946 73.8754 706.865 73.461C707.784 73.0286 708.847 72.8124 710.054 72.8124C711.639 72.8124 712.963 73.1638 714.026 73.8664C715.089 74.551 715.891 75.4608 716.431 76.5958C716.99 77.7128 717.269 78.9199 717.269 80.2171V81.5683H706.243C706.369 82.7213 706.748 83.6491 707.378 84.3517C708.027 85.0544 708.973 85.4057 710.216 85.4057C711.117 85.4057 711.855 85.2255 712.432 84.8652C713.026 84.4869 713.405 84.0275 713.567 83.487H717.026C716.702 85.0003 715.936 86.2164 714.729 87.1352C713.522 88.054 712.017 88.5135 710.216 88.5135ZM710.054 75.9202C708.991 75.9202 708.144 76.2175 707.513 76.812C706.883 77.4065 706.477 78.2263 706.297 79.2712H713.675C713.531 78.2263 713.152 77.4065 712.54 76.812C711.945 76.2175 711.117 75.9202 710.054 75.9202ZM720.845 92.486L717.926 91.378L720.683 83.541L723.818 84.7031L720.845 92.486ZM153.297 122.378C151.675 122.378 150.378 121.964 149.405 121.135C148.45 120.306 147.973 119.144 147.973 117.649C147.973 116.046 148.549 114.866 149.702 114.109C150.873 113.334 152.441 112.947 154.405 112.947H157.404V112.812C157.404 111.136 156.558 110.299 154.864 110.299C154.414 110.299 153.873 110.308 153.243 110.326C152.612 110.344 151.972 110.371 151.324 110.407C150.693 110.425 150.126 110.452 149.621 110.488V107.299C150.234 107.245 150.964 107.2 151.81 107.164C152.675 107.128 153.468 107.11 154.188 107.11C156.44 107.11 158.134 107.569 159.269 108.488C160.422 109.389 160.998 110.857 160.998 112.893V122H158.026V119.189C157.359 121.315 155.783 122.378 153.297 122.378ZM154.351 119.703C154.855 119.703 155.332 119.613 155.783 119.433C156.233 119.235 156.603 118.91 156.891 118.46C157.197 117.991 157.368 117.361 157.404 116.568V115.19H154.351C153.486 115.19 152.819 115.406 152.351 115.838C151.9 116.253 151.675 116.793 151.675 117.46C151.675 118.145 151.9 118.694 152.351 119.108C152.819 119.505 153.486 119.703 154.351 119.703ZM167.324 122L162.73 107.326H166.594L170.053 118.919H170.702L173.701 107.326H177.323L173.35 122H167.324ZM181.781 105.569C181.042 105.569 180.493 105.38 180.133 105.002C179.79 104.605 179.619 104.11 179.619 103.515C179.619 102.921 179.79 102.435 180.133 102.056C180.493 101.678 181.042 101.489 181.781 101.489C182.502 101.489 183.033 101.678 183.376 102.056C183.736 102.435 183.916 102.921 183.916 103.515C183.916 104.11 183.736 104.605 183.376 105.002C183.033 105.38 182.502 105.569 181.781 105.569ZM180.403 122V110.136H178.349V107.326H184.159V122H180.403ZM192.191 122.378C190.569 122.378 189.272 121.964 188.299 121.135C187.344 120.306 186.867 119.144 186.867 117.649C186.867 116.046 187.443 114.866 188.596 114.109C189.768 113.334 191.335 112.947 193.299 112.947H196.298V112.812C196.298 111.136 195.452 110.299 193.758 110.299C193.308 110.299 192.767 110.308 192.137 110.326C191.506 110.344 190.866 110.371 190.218 110.407C189.587 110.425 189.02 110.452 188.515 110.488V107.299C189.128 107.245 189.858 107.2 190.704 107.164C191.569 107.128 192.362 107.11 193.082 107.11C195.334 107.11 197.028 107.569 198.163 108.488C199.316 109.389 199.893 110.857 199.893 112.893V122H196.92V119.189C196.253 121.315 194.677 122.378 192.191 122.378ZM193.245 119.703C193.749 119.703 194.226 119.613 194.677 119.433C195.127 119.235 195.497 118.91 195.785 118.46C196.091 117.991 196.262 117.361 196.298 116.568V115.19H193.245C192.38 115.19 191.713 115.406 191.245 115.838C190.794 116.253 190.569 116.793 190.569 117.46C190.569 118.145 190.794 118.694 191.245 119.108C191.713 119.505 192.38 119.703 193.245 119.703ZM209.834 122.189C208.483 122.189 207.366 122.018 206.483 121.676C205.601 121.315 204.943 120.721 204.511 119.892C204.096 119.063 203.889 117.928 203.889 116.487V110.082H201.565V107.326H203.889L203.916 103.191H207.429L207.402 107.326H211.942V110.082H207.402V116.73C207.402 117.451 207.591 118.009 207.97 118.406C208.366 118.784 208.925 118.973 209.645 118.973H211.942V122.189H209.834ZM216.717 105.569C215.978 105.569 215.428 105.38 215.068 105.002C214.726 104.605 214.555 104.11 214.555 103.515C214.555 102.921 214.726 102.435 215.068 102.056C215.428 101.678 215.978 101.489 216.717 101.489C217.437 101.489 217.969 101.678 218.311 102.056C218.671 102.435 218.851 102.921 218.851 103.515C218.851 104.11 218.671 104.605 218.311 105.002C217.969 105.38 217.437 105.569 216.717 105.569ZM215.338 122V110.136H213.284V107.326H219.095V122H215.338ZM230.018 122.513C228.288 122.513 226.829 122.162 225.64 121.46C224.451 120.739 223.541 119.802 222.91 118.649C222.298 117.496 221.992 116.271 221.992 114.974V114.406C221.992 113.055 222.307 111.803 222.937 110.65C223.586 109.497 224.505 108.569 225.694 107.866C226.901 107.164 228.342 106.812 230.018 106.812C231.675 106.812 233.098 107.164 234.288 107.866C235.495 108.569 236.413 109.497 237.044 110.65C237.693 111.803 238.017 113.055 238.017 114.406V114.974C238.017 116.271 237.702 117.496 237.071 118.649C236.458 119.802 235.558 120.739 234.369 121.46C233.18 122.162 231.729 122.513 230.018 122.513ZM230.018 119.298C231.387 119.298 232.432 118.865 233.152 118C233.891 117.118 234.26 116.01 234.26 114.676C234.26 113.343 233.882 112.235 233.125 111.352C232.369 110.47 231.333 110.028 230.018 110.028C228.685 110.028 227.64 110.47 226.883 111.352C226.126 112.235 225.748 113.343 225.748 114.676C225.748 116.01 226.108 117.118 226.829 118C227.568 118.865 228.63 119.298 230.018 119.298ZM240.847 122V107.326H243.819V110.947C244.45 108.227 246.125 106.866 248.846 106.866H249.008C250.755 106.866 252.08 107.434 252.98 108.569C253.881 109.704 254.332 111.38 254.332 113.595V122H250.575V113.271C250.575 112.37 250.314 111.641 249.792 111.082C249.269 110.524 248.566 110.245 247.684 110.245C246.765 110.245 246.017 110.533 245.441 111.109C244.882 111.686 244.603 112.442 244.603 113.379V122H240.847ZM259.046 126.486L256.127 125.378L258.883 117.541L262.018 118.703L259.046 126.486ZM274.243 122.378C272.622 122.378 271.325 121.964 270.352 121.135C269.397 120.306 268.92 119.144 268.92 117.649C268.92 116.046 269.496 114.866 270.649 114.109C271.82 113.334 273.388 112.947 275.351 112.947H278.351V112.812C278.351 111.136 277.504 110.299 275.811 110.299C275.36 110.299 274.82 110.308 274.189 110.326C273.559 110.344 272.919 110.371 272.271 110.407C271.64 110.425 271.072 110.452 270.568 110.488V107.299C271.181 107.245 271.91 107.2 272.757 107.164C273.622 107.128 274.414 107.11 275.135 107.11C277.387 107.11 279.081 107.569 280.216 108.488C281.369 109.389 281.945 110.857 281.945 112.893V122H278.973V119.189C278.306 121.315 276.73 122.378 274.243 122.378ZM275.297 119.703C275.802 119.703 276.279 119.613 276.73 119.433C277.18 119.235 277.549 118.91 277.838 118.46C278.144 117.991 278.315 117.361 278.351 116.568V115.19H275.297C274.432 115.19 273.766 115.406 273.297 115.838C272.847 116.253 272.622 116.793 272.622 117.46C272.622 118.145 272.847 118.694 273.297 119.108C273.766 119.505 274.432 119.703 275.297 119.703ZM285.509 122V107.326H288.482V110.947C289.113 108.227 290.788 106.866 293.509 106.866H293.671C295.418 106.866 296.742 107.434 297.643 108.569C298.544 109.704 298.994 111.38 298.994 113.595V122H295.238V113.271C295.238 112.37 294.977 111.641 294.454 111.082C293.932 110.524 293.229 110.245 292.347 110.245C291.428 110.245 290.68 110.533 290.104 111.109C289.545 111.686 289.266 112.442 289.266 113.379V122H285.509ZM308.654 122.486C307.285 122.486 306.069 122.162 305.006 121.514C303.943 120.847 303.105 119.946 302.492 118.811C301.898 117.676 301.601 116.397 301.601 114.974V114.406C301.601 113.001 301.889 111.731 302.465 110.596C303.042 109.461 303.844 108.56 304.871 107.893C305.915 107.209 307.141 106.866 308.546 106.866C309.591 106.866 310.528 107.083 311.356 107.515C312.203 107.929 312.897 108.56 313.437 109.407V102.272H317.194V122H314.221V118.919C313.716 120.108 312.969 121 311.978 121.595C311.005 122.189 309.897 122.486 308.654 122.486ZM309.492 119.325C310.23 119.325 310.906 119.162 311.518 118.838C312.131 118.496 312.617 118.009 312.978 117.379C313.356 116.748 313.545 115.992 313.545 115.109V114.028C313.545 113.181 313.347 112.46 312.951 111.866C312.572 111.271 312.077 110.821 311.464 110.515C310.852 110.19 310.194 110.028 309.492 110.028C308.267 110.028 307.267 110.461 306.492 111.325C305.735 112.172 305.357 113.298 305.357 114.703C305.357 116.109 305.744 117.235 306.519 118.082C307.294 118.91 308.285 119.325 309.492 119.325ZM328.788 122L324.788 107.326H328.437L331.436 118.919H332.004L334.193 107.812H338.517L341.03 118.919H341.597L344.273 107.326H347.678L344.138 122H338.76L336.328 111.461L334.166 122H328.788ZM356.913 122.513C355.184 122.513 353.724 122.162 352.535 121.46C351.346 120.739 350.436 119.802 349.806 118.649C349.193 117.496 348.887 116.271 348.887 114.974V114.406C348.887 113.055 349.202 111.803 349.833 110.65C350.481 109.497 351.4 108.569 352.589 107.866C353.796 107.164 355.238 106.812 356.913 106.812C358.571 106.812 359.994 107.164 361.183 107.866C362.39 108.569 363.309 109.497 363.939 110.65C364.588 111.803 364.912 113.055 364.912 114.406V114.974C364.912 116.271 364.597 117.496 363.966 118.649C363.354 119.802 362.453 120.739 361.264 121.46C360.075 122.162 358.625 122.513 356.913 122.513ZM356.913 119.298C358.282 119.298 359.327 118.865 360.048 118C360.787 117.118 361.156 116.01 361.156 114.676C361.156 113.343 360.778 112.235 360.021 111.352C359.264 110.47 358.228 110.028 356.913 110.028C355.58 110.028 354.535 110.47 353.778 111.352C353.022 112.235 352.643 113.343 352.643 114.676C352.643 116.01 353.004 117.118 353.724 118C354.463 118.865 355.526 119.298 356.913 119.298ZM367.742 122V107.326H370.715V112.109C371.111 108.794 372.858 107.137 375.957 107.137H376.498V110.407H375.471C374.192 110.407 373.21 110.749 372.525 111.434C371.841 112.118 371.498 113.091 371.498 114.352V122H367.742ZM378.551 122V102.272H382.308V114.406L387.956 107.326H391.874L386.875 113.568L393.063 122H388.821L383.902 115.136H382.308V122H378.551ZM394.771 122V102.272H398.527V109.785C398.906 108.848 399.464 108.128 400.203 107.623C400.941 107.119 401.869 106.866 402.986 106.866H403.148C404.824 106.866 406.094 107.452 406.959 108.623C407.824 109.776 408.256 111.443 408.256 113.623V122H404.5V113.271C404.5 112.334 404.229 111.596 403.689 111.055C403.166 110.515 402.473 110.245 401.608 110.245C400.671 110.245 399.924 110.551 399.365 111.163C398.807 111.758 398.527 112.542 398.527 113.514V122H394.771ZM418.888 122.513C417.159 122.513 415.699 122.162 414.51 121.46C413.321 120.739 412.411 119.802 411.781 118.649C411.168 117.496 410.862 116.271 410.862 114.974V114.406C410.862 113.055 411.177 111.803 411.808 110.65C412.457 109.497 413.375 108.569 414.564 107.866C415.771 107.164 417.213 106.812 418.888 106.812C420.546 106.812 421.969 107.164 423.158 107.866C424.365 108.569 425.284 109.497 425.915 110.65C426.563 111.803 426.887 113.055 426.887 114.406V114.974C426.887 116.271 426.572 117.496 425.942 118.649C425.329 119.802 424.428 120.739 423.239 121.46C422.05 122.162 420.6 122.513 418.888 122.513ZM418.888 119.298C420.257 119.298 421.302 118.865 422.023 118C422.762 117.118 423.131 116.01 423.131 114.676C423.131 113.343 422.753 112.235 421.996 111.352C421.239 110.47 420.203 110.028 418.888 110.028C417.555 110.028 416.51 110.47 415.753 111.352C414.997 112.235 414.618 113.343 414.618 114.676C414.618 116.01 414.979 117.118 415.699 118C416.438 118.865 417.501 119.298 418.888 119.298ZM429.717 122V107.326H432.69V112.109C433.086 108.794 434.834 107.137 437.932 107.137H438.473V110.407H437.446C436.167 110.407 435.185 110.749 434.5 111.434C433.816 112.118 433.473 113.091 433.473 114.352V122H429.717ZM445.85 122.459C443.833 122.459 442.247 122.036 441.094 121.189C439.959 120.325 439.365 119.135 439.31 117.622H442.688C442.725 118.145 442.995 118.613 443.499 119.027C444.022 119.424 444.823 119.622 445.904 119.622C446.787 119.622 447.499 119.46 448.039 119.135C448.58 118.811 448.85 118.37 448.85 117.811C448.85 117.325 448.643 116.946 448.228 116.676C447.832 116.388 447.147 116.19 446.175 116.082L444.877 115.947C443.22 115.766 441.95 115.298 441.067 114.541C440.202 113.785 439.77 112.776 439.77 111.515C439.77 110.524 440.022 109.686 440.527 109.001C441.031 108.299 441.725 107.776 442.607 107.434C443.508 107.074 444.535 106.894 445.688 106.894C447.49 106.894 448.949 107.299 450.066 108.11C451.183 108.902 451.769 110.055 451.823 111.569H448.445C448.391 111.064 448.129 110.632 447.661 110.272C447.211 109.911 446.544 109.731 445.661 109.731C444.868 109.731 444.256 109.884 443.824 110.19C443.391 110.497 443.175 110.893 443.175 111.38C443.175 111.848 443.346 112.208 443.688 112.46C444.031 112.713 444.607 112.884 445.418 112.974L446.715 113.109C448.427 113.289 449.778 113.767 450.769 114.541C451.76 115.316 452.255 116.361 452.255 117.676C452.255 118.649 451.985 119.496 451.444 120.216C450.922 120.919 450.183 121.469 449.228 121.865C448.273 122.261 447.147 122.459 445.85 122.459ZM461.466 122.513C460.204 122.513 459.097 122.297 458.142 121.865C457.205 121.432 456.421 120.856 455.791 120.135C455.178 119.397 454.71 118.577 454.385 117.676C454.079 116.775 453.926 115.857 453.926 114.92V114.406C453.926 113.433 454.079 112.497 454.385 111.596C454.71 110.695 455.178 109.884 455.791 109.164C456.421 108.443 457.196 107.875 458.115 107.461C459.033 107.029 460.096 106.812 461.303 106.812C462.889 106.812 464.213 107.164 465.276 107.866C466.339 108.551 467.141 109.461 467.681 110.596C468.24 111.713 468.519 112.92 468.519 114.217V115.568H457.493C457.619 116.721 457.998 117.649 458.628 118.352C459.277 119.054 460.223 119.406 461.466 119.406C462.366 119.406 463.105 119.226 463.682 118.865C464.276 118.487 464.654 118.027 464.817 117.487H468.276C467.951 119 467.186 120.216 465.979 121.135C464.772 122.054 463.267 122.513 461.466 122.513ZM461.303 109.92C460.241 109.92 459.394 110.217 458.763 110.812C458.133 111.407 457.727 112.226 457.547 113.271H464.925C464.781 112.226 464.402 111.407 463.79 110.812C463.195 110.217 462.366 109.92 461.303 109.92ZM478.651 105.569C477.913 105.569 477.363 105.38 477.003 105.002C476.66 104.605 476.489 104.11 476.489 103.515C476.489 102.921 476.66 102.435 477.003 102.056C477.363 101.678 477.913 101.489 478.651 101.489C479.372 101.489 479.903 101.678 480.246 102.056C480.606 102.435 480.786 102.921 480.786 103.515C480.786 104.11 480.606 104.605 480.246 105.002C479.903 105.38 479.372 105.569 478.651 105.569ZM477.273 122V110.136H475.219V107.326H481.029V122H477.273ZM484.899 122V107.326H487.872V110.947C488.502 108.227 490.178 106.866 492.898 106.866H493.06C494.808 106.866 496.132 107.434 497.033 108.569C497.934 109.704 498.384 111.38 498.384 113.595V122H494.628V113.271C494.628 112.37 494.367 111.641 493.844 111.082C493.322 110.524 492.619 110.245 491.736 110.245C490.817 110.245 490.07 110.533 489.493 111.109C488.935 111.686 488.655 112.442 488.655 113.379V122H484.899ZM508.044 122.486C506.674 122.486 505.458 122.162 504.395 121.514C503.332 120.847 502.495 119.946 501.882 118.811C501.288 117.676 500.99 116.397 500.99 114.974V114.406C500.99 113.001 501.279 111.731 501.855 110.596C502.432 109.461 503.233 108.56 504.26 107.893C505.305 107.209 506.53 106.866 507.935 106.866C508.98 106.866 509.917 107.083 510.746 107.515C511.593 107.929 512.286 108.56 512.827 109.407V102.272H516.583V122H513.611V118.919C513.106 120.108 512.358 121 511.368 121.595C510.395 122.189 509.287 122.486 508.044 122.486ZM508.881 119.325C509.62 119.325 510.296 119.162 510.908 118.838C511.521 118.496 512.007 118.009 512.367 117.379C512.746 116.748 512.935 115.992 512.935 115.109V114.028C512.935 113.181 512.737 112.46 512.34 111.866C511.962 111.271 511.467 110.821 510.854 110.515C510.242 110.19 509.584 110.028 508.881 110.028C507.656 110.028 506.656 110.461 505.882 111.325C505.125 112.172 504.747 113.298 504.747 114.703C504.747 116.109 505.134 117.235 505.909 118.082C506.683 118.91 507.674 119.325 508.881 119.325ZM525.399 122.459C523.705 122.459 522.39 121.91 521.453 120.811C520.535 119.694 520.075 118.027 520.075 115.811V107.299H523.832V116.136C523.832 117.055 524.084 117.775 524.588 118.298C525.093 118.82 525.777 119.081 526.642 119.081C527.507 119.081 528.209 118.802 528.75 118.244C529.308 117.685 529.588 116.928 529.588 115.974V107.299H533.344V122H530.371V118.595C529.741 121.171 528.137 122.459 525.561 122.459H525.399ZM542.523 122.459C540.506 122.459 538.92 122.036 537.767 121.189C536.632 120.325 536.038 119.135 535.984 117.622H539.362C539.398 118.145 539.668 118.613 540.172 119.027C540.695 119.424 541.497 119.622 542.577 119.622C543.46 119.622 544.172 119.46 544.712 119.135C545.253 118.811 545.523 118.37 545.523 117.811C545.523 117.325 545.316 116.946 544.902 116.676C544.505 116.388 543.821 116.19 542.848 116.082L541.551 115.947C539.893 115.766 538.623 115.298 537.74 114.541C536.875 113.785 536.443 112.776 536.443 111.515C536.443 110.524 536.695 109.686 537.2 109.001C537.704 108.299 538.398 107.776 539.281 107.434C540.181 107.074 541.208 106.894 542.361 106.894C544.163 106.894 545.622 107.299 546.739 108.11C547.856 108.902 548.442 110.055 548.496 111.569H545.118C545.064 111.064 544.802 110.632 544.334 110.272C543.884 109.911 543.217 109.731 542.334 109.731C541.542 109.731 540.929 109.884 540.497 110.19C540.064 110.497 539.848 110.893 539.848 111.38C539.848 111.848 540.019 112.208 540.361 112.46C540.704 112.713 541.28 112.884 542.091 112.974L543.388 113.109C545.1 113.289 546.451 113.767 547.442 114.541C548.433 115.316 548.928 116.361 548.928 117.676C548.928 118.649 548.658 119.496 548.117 120.216C547.595 120.919 546.856 121.469 545.901 121.865C544.947 122.261 543.821 122.459 542.523 122.459ZM557.95 122.189C556.598 122.189 555.481 122.018 554.599 121.676C553.716 121.315 553.058 120.721 552.626 119.892C552.211 119.063 552.004 117.928 552.004 116.487V110.082H549.68V107.326H552.004L552.031 103.191H555.544L555.517 107.326H560.057V110.082H555.517V116.73C555.517 117.451 555.707 118.009 556.085 118.406C556.481 118.784 557.04 118.973 557.76 118.973H560.057V122.189H557.95ZM562.751 122V107.326H565.723V112.109C566.12 108.794 567.867 107.137 570.966 107.137H571.507V110.407H570.48C569.201 110.407 568.219 110.749 567.534 111.434C566.849 112.118 566.507 113.091 566.507 114.352V122H562.751ZM575.641 105.569C574.902 105.569 574.353 105.38 573.993 105.002C573.65 104.605 573.479 104.11 573.479 103.515C573.479 102.921 573.65 102.435 573.993 102.056C574.353 101.678 574.902 101.489 575.641 101.489C576.362 101.489 576.893 101.678 577.235 102.056C577.596 102.435 577.776 102.921 577.776 103.515C577.776 104.11 577.596 104.605 577.235 105.002C576.893 105.38 576.362 105.569 575.641 105.569ZM574.263 122V110.136H572.209V107.326H578.019V122H574.263ZM588.456 122.513C587.195 122.513 586.087 122.297 585.132 121.865C584.195 121.432 583.411 120.856 582.781 120.135C582.168 119.397 581.7 118.577 581.375 117.676C581.069 116.775 580.916 115.857 580.916 114.92V114.406C580.916 113.433 581.069 112.497 581.375 111.596C581.7 110.695 582.168 109.884 582.781 109.164C583.411 108.443 584.186 107.875 585.105 107.461C586.024 107.029 587.087 106.812 588.294 106.812C589.879 106.812 591.203 107.164 592.266 107.866C593.329 108.551 594.131 109.461 594.671 110.596C595.23 111.713 595.509 112.92 595.509 114.217V115.568H584.483C584.609 116.721 584.988 117.649 585.618 118.352C586.267 119.054 587.213 119.406 588.456 119.406C589.357 119.406 590.095 119.226 590.672 118.865C591.266 118.487 591.645 118.027 591.807 117.487H595.266C594.942 119 594.176 120.216 592.969 121.135C591.762 122.054 590.257 122.513 588.456 122.513ZM588.294 109.92C587.231 109.92 586.384 110.217 585.753 110.812C585.123 111.407 584.717 112.226 584.537 113.271H591.915C591.771 112.226 591.392 111.407 590.78 110.812C590.185 110.217 589.357 109.92 588.294 109.92ZM603.511 122.459C601.494 122.459 599.908 122.036 598.755 121.189C597.62 120.325 597.026 119.135 596.972 117.622H600.35C600.386 118.145 600.656 118.613 601.16 119.027C601.683 119.424 602.484 119.622 603.565 119.622C604.448 119.622 605.16 119.46 605.7 119.135C606.241 118.811 606.511 118.37 606.511 117.811C606.511 117.325 606.304 116.946 605.89 116.676C605.493 116.388 604.809 116.19 603.836 116.082L602.539 115.947C600.881 115.766 599.611 115.298 598.728 114.541C597.863 113.785 597.431 112.776 597.431 111.515C597.431 110.524 597.683 109.686 598.188 109.001C598.692 108.299 599.386 107.776 600.268 107.434C601.169 107.074 602.196 106.894 603.349 106.894C605.151 106.894 606.61 107.299 607.727 108.11C608.844 108.902 609.43 110.055 609.484 111.569H606.106C606.052 111.064 605.79 110.632 605.322 110.272C604.872 109.911 604.205 109.731 603.322 109.731C602.53 109.731 601.917 109.884 601.485 110.19C601.052 110.497 600.836 110.893 600.836 111.38C600.836 111.848 601.007 112.208 601.349 112.46C601.692 112.713 602.268 112.884 603.079 112.974L604.376 113.109C606.088 113.289 607.439 113.767 608.43 114.541C609.421 115.316 609.916 116.361 609.916 117.676C609.916 118.649 609.646 119.496 609.105 120.216C608.583 120.919 607.844 121.469 606.889 121.865C605.935 122.261 604.809 122.459 603.511 122.459ZM611.728 122V117.676H615.944V122H611.728ZM149.432 156V136.272H160.998V139.515H153.27V144.542L160.62 144.515V147.758L153.27 147.785V156H149.432ZM170.534 156.513C168.804 156.513 167.345 156.162 166.156 155.46C164.967 154.739 164.057 153.802 163.427 152.649C162.814 151.496 162.508 150.271 162.508 148.974V148.406C162.508 147.055 162.823 145.803 163.454 144.65C164.102 143.497 165.021 142.569 166.21 141.866C167.417 141.164 168.859 140.812 170.534 140.812C172.191 140.812 173.615 141.164 174.804 141.866C176.011 142.569 176.93 143.497 177.56 144.65C178.209 145.803 178.533 147.055 178.533 148.406V148.974C178.533 150.271 178.218 151.496 177.587 152.649C176.975 153.802 176.074 154.739 174.885 155.46C173.696 156.162 172.246 156.513 170.534 156.513ZM170.534 153.298C171.903 153.298 172.948 152.865 173.669 152C174.407 151.118 174.777 150.01 174.777 148.676C174.777 147.343 174.398 146.235 173.642 145.352C172.885 144.47 171.849 144.028 170.534 144.028C169.201 144.028 168.156 144.47 167.399 145.352C166.643 146.235 166.264 147.343 166.264 148.676C166.264 150.01 166.625 151.118 167.345 152C168.084 152.865 169.147 153.298 170.534 153.298ZM181.363 156V141.326H184.336V146.109C184.732 142.794 186.479 141.137 189.578 141.137H190.119V144.407H189.092C187.813 144.407 186.831 144.749 186.146 145.434C185.462 146.118 185.119 147.091 185.119 148.352V156H181.363ZM203.923 156.189C202.572 156.189 201.455 156.018 200.572 155.676C199.689 155.315 199.032 154.721 198.599 153.892C198.185 153.063 197.978 151.928 197.978 150.487V144.082H195.654V141.326H197.978L198.005 137.191H201.518L201.491 141.326H206.031V144.082H201.491V150.73C201.491 151.451 201.68 152.009 202.058 152.406C202.455 152.784 203.013 152.973 203.734 152.973H206.031V156.189H203.923ZM208.724 156V136.272H212.481V143.785C212.859 142.848 213.417 142.128 214.156 141.623C214.895 141.119 215.822 140.866 216.939 140.866H217.102C218.777 140.866 220.047 141.452 220.912 142.623C221.777 143.776 222.209 145.443 222.209 147.623V156H218.453V147.271C218.453 146.334 218.183 145.596 217.642 145.055C217.12 144.515 216.426 144.245 215.561 144.245C214.624 144.245 213.877 144.551 213.318 145.163C212.76 145.758 212.481 146.542 212.481 147.514V156H208.724ZM232.355 156.513C231.094 156.513 229.986 156.297 229.031 155.865C228.094 155.432 227.311 154.856 226.68 154.135C226.067 153.397 225.599 152.577 225.275 151.676C224.968 150.775 224.815 149.857 224.815 148.92V148.406C224.815 147.433 224.968 146.497 225.275 145.596C225.599 144.695 226.067 143.884 226.68 143.164C227.311 142.443 228.085 141.875 229.004 141.461C229.923 141.029 230.986 140.812 232.193 140.812C233.778 140.812 235.103 141.164 236.165 141.866C237.228 142.551 238.03 143.461 238.571 144.596C239.129 145.713 239.408 146.92 239.408 148.217V149.568H228.383C228.509 150.721 228.887 151.649 229.518 152.352C230.166 153.054 231.112 153.406 232.355 153.406C233.256 153.406 233.995 153.226 234.571 152.865C235.166 152.487 235.544 152.027 235.706 151.487H239.165C238.841 153 238.075 154.216 236.868 155.135C235.661 156.054 234.157 156.513 232.355 156.513ZM232.193 143.92C231.13 143.92 230.283 144.217 229.653 144.812C229.022 145.407 228.617 146.226 228.437 147.271H235.814C235.67 146.226 235.292 145.407 234.679 144.812C234.085 144.217 233.256 143.92 232.193 143.92ZM256.081 156.486C254.747 156.486 253.585 156.171 252.594 155.541C251.622 154.91 250.901 154.009 250.433 152.838V156H247.46V136.272H251.216V143.704C251.757 142.767 252.459 142.065 253.324 141.596C254.207 141.11 255.207 140.866 256.324 140.866C257.675 140.866 258.855 141.2 259.864 141.866C260.873 142.515 261.657 143.407 262.215 144.542C262.774 145.659 263.053 146.92 263.053 148.325V148.893C263.053 150.316 262.765 151.604 262.188 152.757C261.611 153.892 260.801 154.802 259.756 155.487C258.729 156.153 257.504 156.486 256.081 156.486ZM255.243 153.325C256.45 153.325 257.423 152.892 258.161 152.027C258.918 151.145 259.296 150.01 259.296 148.622C259.296 147.235 258.918 146.127 258.161 145.298C257.423 144.452 256.45 144.028 255.243 144.028C254.504 144.028 253.82 144.199 253.189 144.542C252.558 144.866 252.054 145.343 251.676 145.974C251.297 146.587 251.108 147.334 251.108 148.217V149.298C251.108 150.145 251.306 150.874 251.703 151.487C252.099 152.082 252.612 152.541 253.243 152.865C253.874 153.171 254.54 153.325 255.243 153.325ZM272.463 156.513C271.202 156.513 270.094 156.297 269.139 155.865C268.202 155.432 267.419 154.856 266.788 154.135C266.175 153.397 265.707 152.577 265.383 151.676C265.076 150.775 264.923 149.857 264.923 148.92V148.406C264.923 147.433 265.076 146.497 265.383 145.596C265.707 144.695 266.175 143.884 266.788 143.164C267.419 142.443 268.193 141.875 269.112 141.461C270.031 141.029 271.094 140.812 272.301 140.812C273.886 140.812 275.211 141.164 276.273 141.866C277.336 142.551 278.138 143.461 278.679 144.596C279.237 145.713 279.516 146.92 279.516 148.217V149.568H268.491C268.617 150.721 268.995 151.649 269.626 152.352C270.274 153.054 271.22 153.406 272.463 153.406C273.364 153.406 274.103 153.226 274.679 152.865C275.274 152.487 275.652 152.027 275.814 151.487H279.273C278.949 153 278.183 154.216 276.976 155.135C275.769 156.054 274.265 156.513 272.463 156.513ZM272.301 143.92C271.238 143.92 270.391 144.217 269.761 144.812C269.13 145.407 268.725 146.226 268.545 147.271H275.922C275.778 146.226 275.4 145.407 274.787 144.812C274.193 144.217 273.364 143.92 272.301 143.92ZM287.519 156.459C285.501 156.459 283.915 156.036 282.762 155.189C281.627 154.325 281.033 153.135 280.979 151.622H284.357C284.393 152.145 284.663 152.613 285.168 153.027C285.69 153.424 286.492 153.622 287.573 153.622C288.456 153.622 289.167 153.46 289.708 153.135C290.248 152.811 290.518 152.37 290.518 151.811C290.518 151.325 290.311 150.946 289.897 150.676C289.5 150.388 288.816 150.19 287.843 150.082L286.546 149.947C284.888 149.766 283.618 149.298 282.735 148.541C281.871 147.785 281.438 146.776 281.438 145.515C281.438 144.524 281.69 143.686 282.195 143.001C282.699 142.299 283.393 141.776 284.276 141.434C285.177 141.074 286.204 140.894 287.357 140.894C289.158 140.894 290.617 141.299 291.734 142.11C292.851 142.902 293.437 144.055 293.491 145.569H290.113C290.059 145.064 289.798 144.632 289.329 144.272C288.879 143.911 288.212 143.731 287.33 143.731C286.537 143.731 285.924 143.884 285.492 144.19C285.06 144.497 284.843 144.893 284.843 145.38C284.843 145.848 285.014 146.208 285.357 146.46C285.699 146.713 286.276 146.884 287.086 146.974L288.383 147.109C290.095 147.289 291.446 147.767 292.437 148.541C293.428 149.316 293.923 150.361 293.923 151.676C293.923 152.649 293.653 153.496 293.113 154.216C292.59 154.919 291.852 155.469 290.897 155.865C289.942 156.261 288.816 156.459 287.519 156.459ZM302.945 156.189C301.594 156.189 300.477 156.018 299.594 155.676C298.711 155.315 298.053 154.721 297.621 153.892C297.207 153.063 297 151.928 297 150.487V144.082H294.675V141.326H297L297.027 137.191H300.54L300.513 141.326H305.053V144.082H300.513V150.73C300.513 151.451 300.702 152.009 301.08 152.406C301.477 152.784 302.035 152.973 302.756 152.973H305.053V156.189H302.945ZM319.686 156.513C318.425 156.513 317.317 156.297 316.362 155.865C315.425 155.432 314.641 154.856 314.011 154.135C313.398 153.397 312.93 152.577 312.606 151.676C312.299 150.775 312.146 149.857 312.146 148.92V148.406C312.146 147.433 312.299 146.497 312.606 145.596C312.93 144.695 313.398 143.884 314.011 143.164C314.641 142.443 315.416 141.875 316.335 141.461C317.254 141.029 318.317 140.812 319.524 140.812C321.109 140.812 322.433 141.164 323.496 141.866C324.559 142.551 325.361 143.461 325.901 144.596C326.46 145.713 326.739 146.92 326.739 148.217V149.568H315.713C315.839 150.721 316.218 151.649 316.848 152.352C317.497 153.054 318.443 153.406 319.686 153.406C320.587 153.406 321.325 153.226 321.902 152.865C322.496 152.487 322.875 152.027 323.037 151.487H326.496C326.172 153 325.406 154.216 324.199 155.135C322.992 156.054 321.487 156.513 319.686 156.513ZM319.524 143.92C318.461 143.92 317.614 144.217 316.983 144.812C316.353 145.407 315.948 146.226 315.767 147.271H323.145C323.001 146.226 322.622 145.407 322.01 144.812C321.415 144.217 320.587 143.92 319.524 143.92ZM350.686 139.569C349.947 139.569 349.407 139.38 349.064 139.002C348.722 138.605 348.551 138.11 348.551 137.515C348.551 136.921 348.722 136.435 349.064 136.056C349.407 135.678 349.947 135.489 350.686 135.489C351.424 135.489 351.965 135.678 352.307 136.056C352.667 136.435 352.848 136.921 352.848 137.515C352.848 138.11 352.667 138.605 352.307 139.002C351.965 139.38 351.424 139.569 350.686 139.569ZM329.742 156V144.163H327.931V141.407H329.742V140.677C329.742 139.002 330.201 137.768 331.12 136.975C332.057 136.164 333.435 135.759 335.255 135.759H336.633V138.651H334.985C334.426 138.651 333.994 138.804 333.688 139.11C333.399 139.398 333.255 139.813 333.255 140.353V141.407H339.309V140.839C339.309 139.164 339.768 137.93 340.687 137.137C341.624 136.326 343.002 135.921 344.821 135.921H346.524V138.813H344.551C343.993 138.813 343.56 138.966 343.254 139.272C342.966 139.56 342.822 139.975 342.822 140.515V141.407H346.2V144.163H342.822V156H339.309V144.163H333.255V156H329.742ZM349.334 156V144.136H347.47V141.326H353.091V156H349.334ZM363.472 156.513C362.193 156.513 361.085 156.297 360.148 155.865C359.211 155.432 358.436 154.856 357.824 154.135C357.211 153.415 356.752 152.604 356.445 151.703C356.139 150.802 355.986 149.884 355.986 148.947V148.433C355.986 147.46 356.139 146.524 356.445 145.623C356.77 144.704 357.238 143.884 357.851 143.164C358.481 142.443 359.256 141.875 360.175 141.461C361.112 141.029 362.202 140.812 363.445 140.812C364.724 140.812 365.859 141.065 366.85 141.569C367.859 142.056 368.66 142.74 369.255 143.623C369.867 144.506 370.219 145.533 370.309 146.704H366.661C366.552 145.947 366.228 145.316 365.688 144.812C365.147 144.308 364.4 144.055 363.445 144.055C362.184 144.055 361.247 144.488 360.634 145.352C360.04 146.217 359.742 147.325 359.742 148.676C359.742 149.992 360.031 151.091 360.607 151.973C361.202 152.838 362.157 153.271 363.472 153.271C364.445 153.271 365.21 153.018 365.769 152.514C366.345 152.009 366.688 151.352 366.796 150.541H370.444C370.372 151.73 370.021 152.775 369.39 153.676C368.777 154.577 367.958 155.279 366.931 155.784C365.904 156.27 364.751 156.513 363.472 156.513ZM375.075 139.569C374.336 139.569 373.786 139.38 373.426 139.002C373.084 138.605 372.913 138.11 372.913 137.515C372.913 136.921 373.084 136.435 373.426 136.056C373.786 135.678 374.336 135.489 375.075 135.489C375.795 135.489 376.327 135.678 376.669 136.056C377.029 136.435 377.209 136.921 377.209 137.515C377.209 138.11 377.029 138.605 376.669 139.002C376.327 139.38 375.795 139.569 375.075 139.569ZM373.696 156V144.136H371.642V141.326H377.453V156H373.696ZM387.889 156.513C386.628 156.513 385.52 156.297 384.565 155.865C383.628 155.432 382.845 154.856 382.214 154.135C381.602 153.397 381.133 152.577 380.809 151.676C380.503 150.775 380.35 149.857 380.35 148.92V148.406C380.35 147.433 380.503 146.497 380.809 145.596C381.133 144.695 381.602 143.884 382.214 143.164C382.845 142.443 383.619 141.875 384.538 141.461C385.457 141.029 386.52 140.812 387.727 140.812C389.313 140.812 390.637 141.164 391.7 141.866C392.763 142.551 393.564 143.461 394.105 144.596C394.663 145.713 394.943 146.92 394.943 148.217V149.568H383.917C384.043 150.721 384.421 151.649 385.052 152.352C385.7 153.054 386.646 153.406 387.889 153.406C388.79 153.406 389.529 153.226 390.105 152.865C390.7 152.487 391.078 152.027 391.24 151.487H394.699C394.375 153 393.609 154.216 392.402 155.135C391.195 156.054 389.691 156.513 387.889 156.513ZM387.727 143.92C386.664 143.92 385.817 144.217 385.187 144.812C384.556 145.407 384.151 146.226 383.971 147.271H391.348C391.204 146.226 390.826 145.407 390.213 144.812C389.619 144.217 388.79 143.92 387.727 143.92ZM397.621 156V141.326H400.594V144.947C401.224 142.227 402.9 140.866 405.62 140.866H405.782C407.53 140.866 408.854 141.434 409.755 142.569C410.656 143.704 411.106 145.38 411.106 147.595V156H407.35V147.271C407.35 146.37 407.089 145.641 406.566 145.082C406.044 144.524 405.341 144.245 404.458 144.245C403.539 144.245 402.792 144.533 402.215 145.109C401.657 145.686 401.377 146.442 401.377 147.379V156H397.621ZM421.198 156.513C419.919 156.513 418.811 156.297 417.874 155.865C416.937 155.432 416.162 154.856 415.55 154.135C414.937 153.415 414.478 152.604 414.172 151.703C413.865 150.802 413.712 149.884 413.712 148.947V148.433C413.712 147.46 413.865 146.524 414.172 145.623C414.496 144.704 414.964 143.884 415.577 143.164C416.208 142.443 416.982 141.875 417.901 141.461C418.838 141.029 419.928 140.812 421.171 140.812C422.45 140.812 423.585 141.065 424.576 141.569C425.585 142.056 426.387 142.74 426.981 143.623C427.594 144.506 427.945 145.533 428.035 146.704H424.387C424.279 145.947 423.954 145.316 423.414 144.812C422.873 144.308 422.126 144.055 421.171 144.055C419.91 144.055 418.973 144.488 418.36 145.352C417.766 146.217 417.469 147.325 417.469 148.676C417.469 149.992 417.757 151.091 418.333 151.973C418.928 152.838 419.883 153.271 421.198 153.271C422.171 153.271 422.937 153.018 423.495 152.514C424.072 152.009 424.414 151.352 424.522 150.541H428.17C428.098 151.73 427.747 152.775 427.116 153.676C426.504 154.577 425.684 155.279 424.657 155.784C423.63 156.27 422.477 156.513 421.198 156.513ZM433.585 155.676L428.828 141.326H432.612L436.179 152.703H436.773L439.719 141.326H443.313L438.962 157.297C438.512 158.937 437.8 160.09 436.827 160.756C435.873 161.441 434.494 161.783 432.693 161.783H430.288V158.567H433.044C433.801 158.567 434.386 158.414 434.801 158.108C435.233 157.82 435.557 157.279 435.773 156.486L435.99 155.676H433.585ZM445.567 160.486L442.649 159.378L445.405 151.541L448.54 152.703L445.567 160.486ZM459.009 156L455.009 141.326H458.657L461.657 152.919H462.224L464.413 141.812H468.737L471.25 152.919H471.818L474.493 141.326H477.898L474.358 156H468.98L466.548 145.461L464.386 156H459.009ZM486.647 156.513C485.386 156.513 484.278 156.297 483.323 155.865C482.386 155.432 481.603 154.856 480.972 154.135C480.36 153.397 479.891 152.577 479.567 151.676C479.261 150.775 479.108 149.857 479.108 148.92V148.406C479.108 147.433 479.261 146.497 479.567 145.596C479.891 144.695 480.36 143.884 480.972 143.164C481.603 142.443 482.377 141.875 483.296 141.461C484.215 141.029 485.278 140.812 486.485 140.812C488.071 140.812 489.395 141.164 490.458 141.866C491.521 142.551 492.322 143.461 492.863 144.596C493.421 145.713 493.701 146.92 493.701 148.217V149.568H482.675C482.801 150.721 483.179 151.649 483.81 152.352C484.458 153.054 485.404 153.406 486.647 153.406C487.548 153.406 488.287 153.226 488.863 152.865C489.458 152.487 489.836 152.027 489.998 151.487H493.457C493.133 153 492.367 154.216 491.16 155.135C489.953 156.054 488.449 156.513 486.647 156.513ZM486.485 143.92C485.422 143.92 484.575 144.217 483.945 144.812C483.314 145.407 482.909 146.226 482.729 147.271H490.106C489.962 146.226 489.584 145.407 488.971 144.812C488.377 144.217 487.548 143.92 486.485 143.92ZM508.805 156.513C507.076 156.513 505.616 156.162 504.427 155.46C503.238 154.739 502.329 153.802 501.698 152.649C501.085 151.496 500.779 150.271 500.779 148.974V148.406C500.779 147.055 501.094 145.803 501.725 144.65C502.374 143.497 503.292 142.569 504.481 141.866C505.689 141.164 507.13 140.812 508.805 140.812C510.463 140.812 511.886 141.164 513.075 141.866C514.282 142.569 515.201 143.497 515.832 144.65C516.48 145.803 516.804 147.055 516.804 148.406V148.974C516.804 150.271 516.489 151.496 515.859 152.649C515.246 153.802 514.345 154.739 513.156 155.46C511.967 156.162 510.517 156.513 508.805 156.513ZM508.805 153.298C510.175 153.298 511.219 152.865 511.94 152C512.679 151.118 513.048 150.01 513.048 148.676C513.048 147.343 512.67 146.235 511.913 145.352C511.156 144.47 510.121 144.028 508.805 144.028C507.472 144.028 506.427 144.47 505.671 145.352C504.914 146.235 504.536 147.343 504.536 148.676C504.536 150.01 504.896 151.118 505.616 152C506.355 152.865 507.418 153.298 508.805 153.298ZM519.958 156V144.326H518.148V141.569H519.958V140.812C519.958 139.137 520.418 137.903 521.337 137.11C522.274 136.299 523.652 135.894 525.471 135.894H526.85V138.786H525.201C524.643 138.786 524.21 138.939 523.904 139.245C523.616 139.533 523.472 139.948 523.472 140.488V141.569H529.525V140.975C529.525 139.299 529.984 138.065 530.903 137.272C531.84 136.462 533.218 136.056 535.038 136.056H536.822V138.948H534.768C534.209 138.948 533.777 139.101 533.471 139.407C533.182 139.695 533.038 140.11 533.038 140.65V141.569H537.065V144.326H533.038V156H529.525V144.326H523.472V156H519.958ZM545.456 156.513C544.194 156.513 543.086 156.297 542.132 155.865C541.195 155.432 540.411 154.856 539.78 154.135C539.168 153.397 538.699 152.577 538.375 151.676C538.069 150.775 537.916 149.857 537.916 148.92V148.406C537.916 147.433 538.069 146.497 538.375 145.596C538.699 144.695 539.168 143.884 539.78 143.164C540.411 142.443 541.186 141.875 542.105 141.461C543.023 141.029 544.086 140.812 545.293 140.812C546.879 140.812 548.203 141.164 549.266 141.866C550.329 142.551 551.131 143.461 551.671 144.596C552.23 145.713 552.509 146.92 552.509 148.217V149.568H541.483C541.609 150.721 541.987 151.649 542.618 152.352C543.267 153.054 544.212 153.406 545.456 153.406C546.356 153.406 547.095 153.226 547.672 152.865C548.266 152.487 548.644 152.027 548.807 151.487H552.266C551.941 153 551.176 154.216 549.969 155.135C548.761 156.054 547.257 156.513 545.456 156.513ZM545.293 143.92C544.23 143.92 543.384 144.217 542.753 144.812C542.123 145.407 541.717 146.226 541.537 147.271H548.915C548.77 146.226 548.392 145.407 547.78 144.812C547.185 144.217 546.356 143.92 545.293 143.92ZM555.187 156V141.326H558.16V146.109C558.556 142.794 560.304 141.137 563.403 141.137H563.943V144.407H562.916C561.637 144.407 560.655 144.749 559.971 145.434C559.286 146.118 558.944 147.091 558.944 148.352V156H555.187ZM571.37 161.405V141.326H574.342V145.001C574.793 143.632 575.531 142.605 576.558 141.92C577.585 141.218 578.765 140.866 580.099 140.866C581.486 140.866 582.684 141.2 583.693 141.866C584.72 142.533 585.521 143.434 586.098 144.569C586.674 145.686 586.963 146.947 586.963 148.352V148.92C586.963 150.325 586.683 151.604 586.125 152.757C585.566 153.892 584.774 154.802 583.747 155.487C582.72 156.153 581.504 156.486 580.099 156.486C579.072 156.486 578.126 156.297 577.261 155.919C576.396 155.523 575.685 154.901 575.126 154.054V161.405H571.37ZM579.153 153.325C580.36 153.325 581.333 152.892 582.071 152.027C582.828 151.145 583.206 150.019 583.206 148.649C583.206 147.262 582.828 146.145 582.071 145.298C581.333 144.452 580.36 144.028 579.153 144.028C578.414 144.028 577.729 144.199 577.099 144.542C576.468 144.866 575.964 145.343 575.586 145.974C575.207 146.587 575.018 147.334 575.018 148.217V149.298C575.018 150.145 575.216 150.874 575.613 151.487C576.009 152.082 576.522 152.541 577.153 152.865C577.783 153.171 578.45 153.325 579.153 153.325ZM589.995 156V139.083H588.158V136.272H593.752V156H589.995ZM602.58 156.459C600.887 156.459 599.571 155.91 598.635 154.811C597.716 153.694 597.256 152.027 597.256 149.811V141.299H601.013V150.136C601.013 151.055 601.265 151.775 601.769 152.298C602.274 152.82 602.958 153.081 603.823 153.081C604.688 153.081 605.391 152.802 605.931 152.244C606.49 151.685 606.769 150.928 606.769 149.974V141.299H610.525V156H607.553V152.595C606.922 155.171 605.319 156.459 602.742 156.459H602.58ZM620.11 161.783C618.615 161.783 617.218 161.684 615.921 161.486V158.351C616.552 158.441 617.236 158.513 617.975 158.567C618.732 158.621 619.434 158.648 620.083 158.648C621.884 158.648 623.182 158.315 623.974 157.648C624.785 157 625.19 155.946 625.19 154.487V153.189C624.686 154.144 623.992 154.874 623.11 155.378C622.245 155.865 621.245 156.108 620.11 156.108C618.759 156.108 617.579 155.784 616.57 155.135C615.579 154.469 614.804 153.586 614.246 152.487C613.687 151.37 613.408 150.118 613.408 148.731V148.163C613.408 146.776 613.696 145.533 614.273 144.434C614.867 143.335 615.678 142.47 616.705 141.839C617.75 141.191 618.957 140.866 620.326 140.866C621.605 140.866 622.704 141.164 623.623 141.758C624.56 142.353 625.272 143.209 625.758 144.326V141.326H628.731V154.27C628.731 156.955 628.037 158.874 626.65 160.027C625.263 161.198 623.083 161.783 620.11 161.783ZM621.191 152.892C621.912 152.892 622.569 152.73 623.164 152.406C623.758 152.082 624.236 151.613 624.596 151.001C624.956 150.388 625.136 149.649 625.136 148.785V147.839C625.136 147.01 624.947 146.307 624.569 145.731C624.209 145.154 623.722 144.722 623.11 144.434C622.515 144.127 621.875 143.974 621.191 143.974C620.002 143.974 619.029 144.389 618.272 145.217C617.534 146.028 617.164 147.109 617.164 148.46C617.164 149.829 617.534 150.91 618.272 151.703C619.029 152.496 620.002 152.892 621.191 152.892ZM641.903 156.378C640.282 156.378 638.985 155.964 638.012 155.135C637.057 154.306 636.579 153.144 636.579 151.649C636.579 150.046 637.156 148.866 638.309 148.109C639.48 147.334 641.047 146.947 643.011 146.947H646.011V146.812C646.011 145.136 645.164 144.299 643.471 144.299C643.02 144.299 642.48 144.308 641.849 144.326C641.219 144.344 640.579 144.371 639.93 144.407C639.3 144.425 638.732 144.452 638.228 144.488V141.299C638.84 141.245 639.57 141.2 640.417 141.164C641.282 141.128 642.074 141.11 642.795 141.11C645.047 141.11 646.74 141.569 647.875 142.488C649.029 143.389 649.605 144.857 649.605 146.893V156H646.632V153.189C645.966 155.315 644.389 156.378 641.903 156.378ZM642.957 153.703C643.462 153.703 643.939 153.613 644.389 153.433C644.84 153.235 645.209 152.91 645.497 152.46C645.804 151.991 645.975 151.361 646.011 150.568V149.19H642.957C642.092 149.19 641.426 149.406 640.957 149.838C640.507 150.253 640.282 150.793 640.282 151.46C640.282 152.145 640.507 152.694 640.957 153.108C641.426 153.505 642.092 153.703 642.957 153.703ZM653.169 156V141.326H656.142V144.947C656.772 142.227 658.448 140.866 661.168 140.866H661.331C663.078 140.866 664.402 141.434 665.303 142.569C666.204 143.704 666.654 145.38 666.654 147.595V156H662.898V147.271C662.898 146.37 662.637 145.641 662.114 145.082C661.592 144.524 660.889 144.245 660.006 144.245C659.088 144.245 658.34 144.533 657.763 145.109C657.205 145.686 656.926 146.442 656.926 147.379V156H653.169ZM676.314 156.486C674.945 156.486 673.728 156.162 672.665 155.514C671.603 154.847 670.765 153.946 670.152 152.811C669.558 151.676 669.26 150.397 669.26 148.974V148.406C669.26 147.001 669.549 145.731 670.125 144.596C670.702 143.461 671.503 142.56 672.53 141.893C673.575 141.209 674.8 140.866 676.206 140.866C677.251 140.866 678.187 141.083 679.016 141.515C679.863 141.929 680.557 142.56 681.097 143.407V136.272H684.853V156H681.881V152.919C681.376 154.108 680.629 155 679.638 155.595C678.665 156.189 677.557 156.486 676.314 156.486ZM677.151 153.325C677.89 153.325 678.566 153.162 679.178 152.838C679.791 152.496 680.277 152.009 680.638 151.379C681.016 150.748 681.205 149.992 681.205 149.109V148.028C681.205 147.181 681.007 146.46 680.611 145.866C680.232 145.271 679.737 144.821 679.124 144.515C678.512 144.19 677.854 144.028 677.151 144.028C675.926 144.028 674.926 144.461 674.152 145.325C673.395 146.172 673.017 147.298 673.017 148.703C673.017 150.109 673.404 151.235 674.179 152.082C674.954 152.91 675.944 153.325 677.151 153.325ZM694.043 161.405V141.326H697.015V145.001C697.466 143.632 698.204 142.605 699.231 141.92C700.258 141.218 701.438 140.866 702.771 140.866C704.159 140.866 705.357 141.2 706.366 141.866C707.393 142.533 708.194 143.434 708.771 144.569C709.347 145.686 709.636 146.947 709.636 148.352V148.92C709.636 150.325 709.356 151.604 708.798 152.757C708.239 153.892 707.447 154.802 706.42 155.487C705.393 156.153 704.177 156.486 702.771 156.486C701.744 156.486 700.799 156.297 699.934 155.919C699.069 155.523 698.357 154.901 697.799 154.054V161.405H694.043ZM701.826 153.325C703.033 153.325 704.006 152.892 704.744 152.027C705.501 151.145 705.879 150.019 705.879 148.649C705.879 147.262 705.501 146.145 704.744 145.298C704.006 144.452 703.033 144.028 701.826 144.028C701.087 144.028 700.402 144.199 699.772 144.542C699.141 144.866 698.637 145.343 698.258 145.974C697.88 146.587 697.691 147.334 697.691 148.217V149.298C697.691 150.145 697.889 150.874 698.285 151.487C698.682 152.082 699.195 152.541 699.826 152.865C700.456 153.171 701.123 153.325 701.826 153.325ZM712.668 156V139.083H710.83V136.272H716.424V156H712.668ZM724.415 156.378C722.794 156.378 721.497 155.964 720.524 155.135C719.569 154.306 719.091 153.144 719.091 151.649C719.091 150.046 719.668 148.866 720.821 148.109C721.992 147.334 723.559 146.947 725.523 146.947H728.523V146.812C728.523 145.136 727.676 144.299 725.983 144.299C725.532 144.299 724.992 144.308 724.361 144.326C723.731 144.344 723.091 144.371 722.442 144.407C721.812 144.425 721.244 144.452 720.74 144.488V141.299C721.352 141.245 722.082 141.2 722.929 141.164C723.794 141.128 724.586 141.11 725.307 141.11C727.559 141.11 729.253 141.569 730.388 142.488C731.541 143.389 732.117 144.857 732.117 146.893V156H729.144V153.189C728.478 155.315 726.901 156.378 724.415 156.378ZM725.469 153.703C725.974 153.703 726.451 153.613 726.901 153.433C727.352 153.235 727.721 152.91 728.009 152.46C728.316 151.991 728.487 151.361 728.523 150.568V149.19H725.469C724.604 149.19 723.938 149.406 723.469 149.838C723.019 150.253 722.794 150.793 722.794 151.46C722.794 152.145 723.019 152.694 723.469 153.108C723.938 153.505 724.604 153.703 725.469 153.703ZM738.361 155.676L733.605 141.326H737.388L740.955 152.703H741.55L744.496 141.326H748.09L743.739 157.297C743.289 158.937 742.577 160.09 741.604 160.756C740.649 161.441 739.271 161.783 737.469 161.783H735.064V158.567H737.821C738.577 158.567 739.163 158.414 739.577 158.108C740.01 157.82 740.334 157.279 740.55 156.486L740.766 155.676H738.361ZM149.135 190V175.326H152.108V178.92C152.72 176.218 154.315 174.866 156.891 174.866H157.053C159.377 174.866 160.908 175.974 161.647 178.19C162.368 175.974 163.899 174.866 166.241 174.866H166.403C168.079 174.866 169.349 175.443 170.214 176.596C171.097 177.749 171.538 179.425 171.538 181.623V190H167.782V181.271C167.782 180.352 167.547 179.623 167.079 179.082C166.611 178.524 165.944 178.245 165.079 178.245C164.196 178.245 163.494 178.533 162.971 179.109C162.467 179.668 162.215 180.424 162.215 181.379V190H158.458V181.271C158.458 180.352 158.224 179.623 157.756 179.082C157.287 178.524 156.621 178.245 155.756 178.245C154.873 178.245 154.17 178.533 153.648 179.109C153.143 179.668 152.891 180.424 152.891 181.379V190H149.135ZM182.146 190.513C180.416 190.513 178.957 190.162 177.768 189.46C176.579 188.739 175.669 187.802 175.039 186.649C174.426 185.496 174.12 184.271 174.12 182.974V182.406C174.12 181.055 174.435 179.803 175.066 178.65C175.714 177.497 176.633 176.569 177.822 175.866C179.029 175.164 180.47 174.812 182.146 174.812C183.803 174.812 185.227 175.164 186.416 175.866C187.623 176.569 188.542 177.497 189.172 178.65C189.821 179.803 190.145 181.055 190.145 182.406V182.974C190.145 184.271 189.83 185.496 189.199 186.649C188.587 187.802 187.686 188.739 186.497 189.46C185.308 190.162 183.857 190.513 182.146 190.513ZM182.146 187.298C183.515 187.298 184.56 186.865 185.281 186C186.019 185.118 186.389 184.01 186.389 182.676C186.389 181.343 186.01 180.235 185.254 179.352C184.497 178.47 183.461 178.028 182.146 178.028C180.813 178.028 179.768 178.47 179.011 179.352C178.254 180.235 177.876 181.343 177.876 182.676C177.876 184.01 178.236 185.118 178.957 186C179.696 186.865 180.759 187.298 182.146 187.298ZM199.352 190.189C198.001 190.189 196.884 190.018 196.001 189.676C195.119 189.315 194.461 188.721 194.029 187.892C193.614 187.063 193.407 185.928 193.407 184.487V178.082H191.083V175.326H193.407L193.434 171.191H196.947L196.92 175.326H201.46V178.082H196.92V184.73C196.92 185.451 197.109 186.009 197.488 186.406C197.884 186.784 198.443 186.973 199.163 186.973H201.46V190.189H199.352ZM211.128 190.513C209.398 190.513 207.939 190.162 206.75 189.46C205.561 188.739 204.651 187.802 204.02 186.649C203.408 185.496 203.102 184.271 203.102 182.974V182.406C203.102 181.055 203.417 179.803 204.048 178.65C204.696 177.497 205.615 176.569 206.804 175.866C208.011 175.164 209.452 174.812 211.128 174.812C212.785 174.812 214.209 175.164 215.398 175.866C216.605 176.569 217.524 177.497 218.154 178.65C218.803 179.803 219.127 181.055 219.127 182.406V182.974C219.127 184.271 218.812 185.496 218.181 186.649C217.569 187.802 216.668 188.739 215.479 189.46C214.29 190.162 212.839 190.513 211.128 190.513ZM211.128 187.298C212.497 187.298 213.542 186.865 214.263 186C215.001 185.118 215.371 184.01 215.371 182.676C215.371 181.343 214.992 180.235 214.236 179.352C213.479 178.47 212.443 178.028 211.128 178.028C209.795 178.028 208.75 178.47 207.993 179.352C207.236 180.235 206.858 181.343 206.858 182.676C206.858 184.01 207.218 185.118 207.939 186C208.678 186.865 209.741 187.298 211.128 187.298ZM221.957 190V175.326H224.929V180.109C225.326 176.794 227.073 175.137 230.172 175.137H230.713V178.407H229.686C228.406 178.407 227.425 178.749 226.74 179.434C226.055 180.118 225.713 181.091 225.713 182.352V190H221.957ZM231.798 184.055V180.758H242.743V184.055H231.798ZM252.305 190.513C251.026 190.513 249.918 190.297 248.981 189.865C248.044 189.432 247.27 188.856 246.657 188.135C246.045 187.415 245.585 186.604 245.279 185.703C244.973 184.802 244.82 183.884 244.82 182.947V182.433C244.82 181.46 244.973 180.524 245.279 179.623C245.603 178.704 246.072 177.884 246.684 177.164C247.315 176.443 248.089 175.875 249.008 175.461C249.945 175.029 251.035 174.812 252.278 174.812C253.557 174.812 254.692 175.065 255.683 175.569C256.692 176.056 257.494 176.74 258.088 177.623C258.701 178.506 259.052 179.533 259.142 180.704H255.494C255.386 179.947 255.062 179.316 254.521 178.812C253.981 178.308 253.233 178.055 252.278 178.055C251.017 178.055 250.08 178.488 249.468 179.352C248.873 180.217 248.576 181.325 248.576 182.676C248.576 183.992 248.864 185.091 249.441 185.973C250.035 186.838 250.99 187.271 252.305 187.271C253.278 187.271 254.044 187.018 254.602 186.514C255.179 186.009 255.521 185.352 255.629 184.541H259.277C259.205 185.73 258.854 186.775 258.223 187.676C257.611 188.577 256.791 189.279 255.764 189.784C254.737 190.27 253.584 190.513 252.305 190.513ZM268.88 190.513C267.151 190.513 265.692 190.162 264.503 189.46C263.314 188.739 262.404 187.802 261.773 186.649C261.161 185.496 260.854 184.271 260.854 182.974V182.406C260.854 181.055 261.17 179.803 261.8 178.65C262.449 177.497 263.368 176.569 264.557 175.866C265.764 175.164 267.205 174.812 268.88 174.812C270.538 174.812 271.961 175.164 273.15 175.866C274.357 176.569 275.276 177.497 275.907 178.65C276.555 179.803 276.88 181.055 276.88 182.406V182.974C276.88 184.271 276.564 185.496 275.934 186.649C275.321 187.802 274.42 188.739 273.231 189.46C272.042 190.162 270.592 190.513 268.88 190.513ZM268.88 187.298C270.25 187.298 271.295 186.865 272.015 186C272.754 185.118 273.123 184.01 273.123 182.676C273.123 181.343 272.745 180.235 271.988 179.352C271.232 178.47 270.196 178.028 268.88 178.028C267.547 178.028 266.502 178.47 265.746 179.352C264.989 180.235 264.611 181.343 264.611 182.676C264.611 184.01 264.971 185.118 265.692 186C266.43 186.865 267.493 187.298 268.88 187.298ZM279.709 190V175.326H282.682V178.947C283.313 176.227 284.988 174.866 287.708 174.866H287.871C289.618 174.866 290.942 175.434 291.843 176.569C292.744 177.704 293.194 179.38 293.194 181.595V190H289.438V181.271C289.438 180.37 289.177 179.641 288.654 179.082C288.132 178.524 287.429 178.245 286.546 178.245C285.628 178.245 284.88 178.533 284.303 179.109C283.745 179.686 283.466 180.442 283.466 181.379V190H279.709ZM303.151 190.189C301.8 190.189 300.683 190.018 299.8 189.676C298.917 189.315 298.26 188.721 297.827 187.892C297.413 187.063 297.206 185.928 297.206 184.487V178.082H294.882V175.326H297.206L297.233 171.191H300.746L300.719 175.326H305.259V178.082H300.719V184.73C300.719 185.451 300.908 186.009 301.286 186.406C301.683 186.784 302.241 186.973 302.962 186.973H305.259V190.189H303.151ZM307.952 190V175.326H310.925V180.109C311.321 176.794 313.069 175.137 316.168 175.137H316.708V178.407H315.681C314.402 178.407 313.42 178.749 312.736 179.434C312.051 180.118 311.709 181.091 311.709 182.352V190H307.952ZM325.709 190.513C323.98 190.513 322.521 190.162 321.332 189.46C320.143 188.739 319.233 187.802 318.602 186.649C317.99 185.496 317.683 184.271 317.683 182.974V182.406C317.683 181.055 317.999 179.803 318.629 178.65C319.278 177.497 320.197 176.569 321.386 175.866C322.593 175.164 324.034 174.812 325.709 174.812C327.367 174.812 328.79 175.164 329.979 175.866C331.186 176.569 332.105 177.497 332.736 178.65C333.384 179.803 333.709 181.055 333.709 182.406V182.974C333.709 184.271 333.393 185.496 332.763 186.649C332.15 187.802 331.249 188.739 330.06 189.46C328.871 190.162 327.421 190.513 325.709 190.513ZM325.709 187.298C327.079 187.298 328.124 186.865 328.844 186C329.583 185.118 329.952 184.01 329.952 182.676C329.952 181.343 329.574 180.235 328.817 179.352C328.061 178.47 327.025 178.028 325.709 178.028C324.376 178.028 323.331 178.47 322.575 179.352C321.818 180.235 321.44 181.343 321.44 182.676C321.44 184.01 321.8 185.118 322.521 186C323.259 186.865 324.322 187.298 325.709 187.298ZM336.728 190V173.083H334.89V170.272H340.484V190H336.728ZM344.502 190V173.083H342.664V170.272H348.258V190H344.502ZM358.654 190.513C357.393 190.513 356.285 190.297 355.33 189.865C354.393 189.432 353.61 188.856 352.979 188.135C352.367 187.397 351.898 186.577 351.574 185.676C351.268 184.775 351.114 183.857 351.114 182.92V182.406C351.114 181.433 351.268 180.497 351.574 179.596C351.898 178.695 352.367 177.884 352.979 177.164C353.61 176.443 354.384 175.875 355.303 175.461C356.222 175.029 357.285 174.812 358.492 174.812C360.077 174.812 361.402 175.164 362.465 175.866C363.528 176.551 364.329 177.461 364.87 178.596C365.428 179.713 365.708 180.92 365.708 182.217V183.568H354.682C354.808 184.721 355.186 185.649 355.817 186.352C356.465 187.054 357.411 187.406 358.654 187.406C359.555 187.406 360.294 187.226 360.87 186.865C361.465 186.487 361.843 186.027 362.005 185.487H365.464C365.14 187 364.374 188.216 363.167 189.135C361.96 190.054 360.456 190.513 358.654 190.513ZM358.492 177.92C357.429 177.92 356.582 178.217 355.952 178.812C355.321 179.407 354.916 180.226 354.736 181.271H362.113C361.969 180.226 361.591 179.407 360.978 178.812C360.384 178.217 359.555 177.92 358.492 177.92ZM368.386 190V175.326H371.359V180.109C371.755 176.794 373.503 175.137 376.601 175.137H377.142V178.407H376.115C374.836 178.407 373.854 178.749 373.169 179.434C372.485 180.118 372.142 181.091 372.142 182.352V190H368.386ZM384.568 195.405V175.326H387.541V179.001C387.992 177.632 388.73 176.605 389.757 175.92C390.784 175.218 391.964 174.866 393.297 174.866C394.684 174.866 395.883 175.2 396.891 175.866C397.918 176.533 398.72 177.434 399.297 178.569C399.873 179.686 400.161 180.947 400.161 182.352V182.92C400.161 184.325 399.882 185.604 399.324 186.757C398.765 187.892 397.972 188.802 396.946 189.487C395.919 190.153 394.703 190.486 393.297 190.486C392.27 190.486 391.324 190.297 390.46 189.919C389.595 189.523 388.883 188.901 388.325 188.054V195.405H384.568ZM392.351 187.325C393.558 187.325 394.531 186.892 395.27 186.027C396.027 185.145 396.405 184.019 396.405 182.649C396.405 181.262 396.027 180.145 395.27 179.298C394.531 178.452 393.558 178.028 392.351 178.028C391.613 178.028 390.928 178.199 390.298 178.542C389.667 178.866 389.163 179.343 388.784 179.974C388.406 180.587 388.217 181.334 388.217 182.217V183.298C388.217 184.145 388.415 184.874 388.811 185.487C389.208 186.082 389.721 186.541 390.352 186.865C390.982 187.171 391.649 187.325 392.351 187.325ZM407.167 190.378C405.545 190.378 404.248 189.964 403.275 189.135C402.32 188.306 401.843 187.144 401.843 185.649C401.843 184.046 402.419 182.866 403.572 182.109C404.743 181.334 406.311 180.947 408.275 180.947H411.274V180.812C411.274 179.136 410.427 178.299 408.734 178.299C408.284 178.299 407.743 178.308 407.112 178.326C406.482 178.344 405.842 178.371 405.194 178.407C404.563 178.425 403.996 178.452 403.491 178.488V175.299C404.104 175.245 404.833 175.2 405.68 175.164C406.545 175.128 407.338 175.11 408.058 175.11C410.31 175.11 412.004 175.569 413.139 176.488C414.292 177.389 414.868 178.857 414.868 180.893V190H411.896V187.189C411.229 189.315 409.653 190.378 407.167 190.378ZM408.22 187.703C408.725 187.703 409.202 187.613 409.653 187.433C410.103 187.235 410.472 186.91 410.761 186.46C411.067 185.991 411.238 185.361 411.274 184.568V183.19H408.22C407.356 183.19 406.689 183.406 406.221 183.838C405.77 184.253 405.545 184.793 405.545 185.46C405.545 186.145 405.77 186.694 406.221 187.108C406.689 187.505 407.356 187.703 408.22 187.703ZM424.945 190.513C423.666 190.513 422.558 190.297 421.621 189.865C420.685 189.432 419.91 188.856 419.297 188.135C418.685 187.415 418.225 186.604 417.919 185.703C417.613 184.802 417.46 183.884 417.46 182.947V182.433C417.46 181.46 417.613 180.524 417.919 179.623C418.243 178.704 418.712 177.884 419.324 177.164C419.955 176.443 420.73 175.875 421.649 175.461C422.585 175.029 423.675 174.812 424.918 174.812C426.198 174.812 427.333 175.065 428.323 175.569C429.332 176.056 430.134 176.74 430.729 177.623C431.341 178.506 431.692 179.533 431.783 180.704H428.134C428.026 179.947 427.702 179.316 427.161 178.812C426.621 178.308 425.873 178.055 424.918 178.055C423.657 178.055 422.72 178.488 422.108 179.352C421.513 180.217 421.216 181.325 421.216 182.676C421.216 183.992 421.504 185.091 422.081 185.973C422.675 186.838 423.63 187.271 424.945 187.271C425.918 187.271 426.684 187.018 427.243 186.514C427.819 186.009 428.161 185.352 428.269 184.541H431.918C431.846 185.73 431.494 186.775 430.864 187.676C430.251 188.577 429.431 189.279 428.405 189.784C427.378 190.27 426.225 190.513 424.945 190.513ZM434.467 190V170.272H438.224V182.406L443.872 175.326H447.79L442.791 181.568L448.979 190H444.737L439.818 183.136H438.224V190H434.467ZM454.638 190.378C453.016 190.378 451.719 189.964 450.746 189.135C449.791 188.306 449.314 187.144 449.314 185.649C449.314 184.046 449.89 182.866 451.043 182.109C452.214 181.334 453.782 180.947 455.746 180.947H458.745V180.812C458.745 179.136 457.899 178.299 456.205 178.299C455.755 178.299 455.214 178.308 454.584 178.326C453.953 178.344 453.313 178.371 452.665 178.407C452.034 178.425 451.467 178.452 450.962 178.488V175.299C451.575 175.245 452.305 175.2 453.151 175.164C454.016 175.128 454.809 175.11 455.529 175.11C457.781 175.11 459.475 175.569 460.61 176.488C461.763 177.389 462.339 178.857 462.339 180.893V190H459.367V187.189C458.7 189.315 457.124 190.378 454.638 190.378ZM455.692 187.703C456.196 187.703 456.673 187.613 457.124 187.433C457.574 187.235 457.944 186.91 458.232 186.46C458.538 185.991 458.709 185.361 458.745 184.568V183.19H455.692C454.827 183.19 454.16 183.406 453.692 183.838C453.241 184.253 453.016 184.793 453.016 185.46C453.016 186.145 453.241 186.694 453.692 187.108C454.16 187.505 454.827 187.703 455.692 187.703ZM471.633 195.783C470.137 195.783 468.741 195.684 467.444 195.486V192.351C468.075 192.441 468.759 192.513 469.498 192.567C470.255 192.621 470.957 192.648 471.606 192.648C473.407 192.648 474.705 192.315 475.497 191.648C476.308 191 476.713 189.946 476.713 188.487V187.189C476.209 188.144 475.515 188.874 474.632 189.378C473.768 189.865 472.768 190.108 471.633 190.108C470.282 190.108 469.102 189.784 468.093 189.135C467.102 188.469 466.327 187.586 465.769 186.487C465.21 185.37 464.931 184.118 464.931 182.731V182.163C464.931 180.776 465.219 179.533 465.796 178.434C466.39 177.335 467.201 176.47 468.228 175.839C469.273 175.191 470.48 174.866 471.849 174.866C473.128 174.866 474.227 175.164 475.146 175.758C476.083 176.353 476.794 177.209 477.281 178.326V175.326H480.253V188.27C480.253 190.955 479.56 192.874 478.173 194.027C476.785 195.198 474.605 195.783 471.633 195.783ZM472.714 186.892C473.434 186.892 474.092 186.73 474.687 186.406C475.281 186.082 475.758 185.613 476.119 185.001C476.479 184.388 476.659 183.649 476.659 182.785V181.839C476.659 181.01 476.47 180.307 476.092 179.731C475.731 179.154 475.245 178.722 474.632 178.434C474.038 178.127 473.398 177.974 472.714 177.974C471.525 177.974 470.552 178.389 469.795 179.217C469.056 180.028 468.687 181.109 468.687 182.46C468.687 183.829 469.056 184.91 469.795 185.703C470.552 186.496 471.525 186.892 472.714 186.892ZM490.458 190.513C489.197 190.513 488.089 190.297 487.134 189.865C486.197 189.432 485.414 188.856 484.783 188.135C484.171 187.397 483.702 186.577 483.378 185.676C483.072 184.775 482.919 183.857 482.919 182.92V182.406C482.919 181.433 483.072 180.497 483.378 179.596C483.702 178.695 484.171 177.884 484.783 177.164C485.414 176.443 486.188 175.875 487.107 175.461C488.026 175.029 489.089 174.812 490.296 174.812C491.882 174.812 493.206 175.164 494.269 175.866C495.332 176.551 496.133 177.461 496.674 178.596C497.232 179.713 497.512 180.92 497.512 182.217V183.568H486.486C486.612 184.721 486.99 185.649 487.621 186.352C488.269 187.054 489.215 187.406 490.458 187.406C491.359 187.406 492.098 187.226 492.674 186.865C493.269 186.487 493.647 186.027 493.809 185.487H497.268C496.944 187 496.178 188.216 494.971 189.135C493.764 190.054 492.26 190.513 490.458 190.513ZM490.296 177.92C489.233 177.92 488.386 178.217 487.756 178.812C487.125 179.407 486.72 180.226 486.54 181.271H493.917C493.773 180.226 493.395 179.407 492.782 178.812C492.188 178.217 491.359 177.92 490.296 177.92ZM499.358 190V185.676H503.574V190H499.358Z" fill="white"/>
<path d="M271 287H280" stroke="#F6E27B" stroke-width="2" stroke-linecap="round"/>
<path d="M288 287H297" stroke="#F6E27B" stroke-width="2" stroke-linecap="round"/>
<path d="M305 287H314" stroke="#F6E27B" stroke-width="2" stroke-linecap="round"/>
<path d="M322 287H331" stroke="#F6E27B" stroke-width="2" stroke-linecap="round"/>
<path d="M398 287H407" stroke="#F6E27B" stroke-width="2" stroke-linecap="round"/>
<path d="M415 287H424" stroke="#F6E27B" stroke-width="2" stroke-linecap="round"/>
<path d="M432 287H441" stroke="#F6E27B" stroke-width="2" stroke-linecap="round"/>
<path d="M449 287H458" stroke="#F6E27B" stroke-width="2" stroke-linecap="round"/>
</svg>
